<svg width="199" height="173" viewBox="0 0 199 173" fill="none" xmlns="http://www.w3.org/2000/svg">
<path d="M80.8674 119.065L117.128 58.153C119.293 54.5158 123.987 53.3295 127.611 55.5033L188.317 91.9084C191.941 94.0822 193.125 98.7929 190.959 102.43L154.699 163.342C152.534 166.98 147.84 168.166 144.216 165.992L83.5103 129.587C79.8855 127.413 78.7023 122.703 80.8674 119.065Z" fill="#E5EEFF"/>
<path d="M98.0729 37.3959L82.5412 94.1033C80.959 99.8803 75.0083 103.274 69.2502 101.683L13.0794 86.1637C7.32124 84.5728 3.936 78.5999 5.51828 72.8229L21.0499 16.1156C22.6322 10.3385 28.5828 6.94503 34.341 8.53593L90.5118 24.0551C96.2699 25.6461 99.6552 31.6189 98.0729 37.3959Z" fill="#F2F6FF"/>
<path fill-rule="evenodd" clip-rule="evenodd" d="M143.672 135.465L143.676 140.157C143.677 140.799 143.159 141.319 142.519 141.32L136.866 141.325L136.872 147.837C136.872 148.478 136.355 148.999 135.715 148.999L50.8056 149.08C50.1665 149.081 49.6478 148.562 49.6471 147.92L49.5476 43.1908C49.5469 42.5494 50.0647 42.029 50.7041 42.0284L56.3581 42.023L56.3517 35.5109C56.3511 34.8698 56.8691 34.3495 57.5083 34.3488L65.2951 34.3412L65.2908 29.6486C65.2902 29.0072 65.8079 28.4868 66.4474 28.4862L135.411 28.4203L152.191 45.2199C152.409 45.4375 152.531 45.7329 152.531 46.0406L152.615 134.295C152.616 134.936 152.098 135.456 151.459 135.457L143.672 135.465Z" fill="#CCDDFF"/>
<path d="M46.2565 143.471L46.157 38.741C46.1567 38.0999 46.6744 37.5796 47.3135 37.5789L116.278 37.5131L133.058 54.3127C133.275 54.5303 133.397 54.8254 133.398 55.1334L133.481 143.387C133.482 144.029 132.964 144.549 132.325 144.55L47.4153 144.631C46.7759 144.632 46.2571 144.112 46.2565 143.471Z" fill="white"/>
<path d="M116.62 37.5127L116.278 37.5131M116.278 37.5131L47.3135 37.5789C46.6744 37.5796 46.1567 38.0999 46.157 38.741L46.2565 143.471C46.2571 144.112 46.7759 144.632 47.4153 144.631L132.325 144.55C132.964 144.549 133.482 144.029 133.481 143.387L133.398 55.1334C133.397 54.8254 133.275 54.5303 133.058 54.3127L116.278 37.5131Z" stroke="#D1D1D1" stroke-width="2.37194"/>
<path d="M53.0609 135.791L52.9614 31.0613C52.9608 30.42 53.4785 29.8996 54.1179 29.8989L123.082 29.833L139.862 46.6328C140.079 46.8504 140.202 47.1455 140.202 47.4536L140.286 135.708C140.286 136.349 139.769 136.869 139.129 136.87L54.2198 136.951C53.5803 136.952 53.0616 136.432 53.0609 135.791Z" fill="white"/>
<path d="M123.424 29.8327L123.082 29.833M123.082 29.833L54.1179 29.899C53.4785 29.8996 52.9608 30.42 52.9614 31.0613L53.0609 135.791C53.0616 136.432 53.5803 136.952 54.2198 136.951L139.129 136.87C139.769 136.869 140.286 136.349 140.286 135.708L140.202 47.4536C140.202 47.1455 140.079 46.8504 139.862 46.6328L123.082 29.833Z" stroke="#D1D1D1" stroke-width="2.37194"/>
<path d="M62.0004 129.929L61.9009 25.1989C61.9002 24.5576 62.4183 24.0372 63.0574 24.0365L132.022 23.9706L148.802 40.7701C149.019 40.9877 149.141 41.2831 149.141 41.5912L149.225 129.845C149.226 130.487 148.708 131.007 148.069 131.008L63.1592 131.089C62.5198 131.089 62.001 130.57 62.0004 129.929Z" fill="white"/>
<path d="M132.364 23.9703L132.022 23.9706M132.022 23.9706L63.0574 24.0365C62.4183 24.0372 61.9002 24.5576 61.9009 25.1989L62.0004 129.929C62.001 130.57 62.5198 131.089 63.1592 131.089L148.069 131.008C148.708 131.007 149.226 130.487 149.225 129.845L149.141 41.5912C149.141 41.2831 149.019 40.9877 148.802 40.7701L132.022 23.9706Z" stroke="#D1D1D1" stroke-width="2.37194"/>
<path opacity="0.6" d="M134.78 58.7535H72.0457C71.8867 58.7535 71.7578 58.8828 71.7578 59.0422V59.8839C71.7578 60.0433 71.8867 60.1726 72.0457 60.1726H134.78C134.939 60.1726 135.068 60.0433 135.068 59.8839V59.0422C135.068 58.8828 134.939 58.7535 134.78 58.7535Z" fill="#D1D1D1"/>
<path opacity="0.6" d="M134.78 67.1303H72.0457C71.8867 67.1303 71.7578 67.2596 71.7578 67.4191V68.2607C71.7578 68.4202 71.8867 68.5494 72.0457 68.5494H134.78C134.939 68.5494 135.068 68.4202 135.068 68.2607V67.4191C135.068 67.2596 134.939 67.1303 134.78 67.1303Z" fill="#D1D1D1"/>
<path opacity="0.6" d="M134.78 54.8566H72.0457C71.8867 54.8566 71.7578 54.9859 71.7578 55.1454V55.987C71.7578 56.1465 71.8867 56.2758 72.0457 56.2758H134.78C134.939 56.2758 135.068 56.1465 135.068 55.987V55.1454C135.068 54.9859 134.939 54.8566 134.78 54.8566Z" fill="#D1D1D1"/>
<path opacity="0.6" d="M134.78 63.2322H72.0457C71.8867 63.2322 71.7578 63.3615 71.7578 63.5209V64.3626C71.7578 64.522 71.8867 64.6513 72.0457 64.6513H134.78C134.939 64.6513 135.068 64.522 135.068 64.3626V63.5209C135.068 63.3615 134.939 63.2322 134.78 63.2322Z" fill="#D1D1D1"/>
<path opacity="0.6" d="M134.78 50.9591H72.0457C71.8867 50.9591 71.7578 51.0884 71.7578 51.2479V52.0895C71.7578 52.249 71.8867 52.3783 72.0457 52.3783H134.78C134.939 52.3783 135.068 52.249 135.068 52.0895V51.2479C135.068 51.0884 134.939 50.9591 134.78 50.9591Z" fill="#D1D1D1"/>
<path opacity="0.6" d="M92.5317 38.0134H72.0457C71.8867 38.0134 71.7578 38.1427 71.7578 38.3022V39.2337C71.7578 39.3932 71.8867 39.5225 72.0457 39.5225H92.5317C92.6907 39.5225 92.8196 39.3932 92.8196 39.2337V38.3022C92.8196 38.1427 92.6907 38.0134 92.5317 38.0134Z" fill="#D1D1D1"/>
<path opacity="0.6" d="M99.0576 77.8779H72.0457C71.8867 77.8779 71.7578 78.0072 71.7578 78.1667V79.0083C71.7578 79.1678 71.8867 79.2971 72.0457 79.2971H99.0576C99.2166 79.2971 99.3455 79.1678 99.3455 79.0083V78.1667C99.3455 78.0072 99.2166 77.8779 99.0576 77.8779Z" fill="#D1D1D1"/>
<path opacity="0.6" d="M99.0576 81.7748H72.0457C71.8867 81.7748 71.7578 81.9041 71.7578 82.0635V82.9052C71.7578 83.0646 71.8867 83.1939 72.0457 83.1939H99.0576C99.2166 83.1939 99.3455 83.0646 99.3455 82.9052V82.0635C99.3455 81.9041 99.2166 81.7748 99.0576 81.7748Z" fill="#D1D1D1"/>
<path opacity="0.6" d="M88.0185 85.6164H72.0457C71.8867 85.6164 71.7578 85.7456 71.7578 85.9051V86.8367C71.7578 86.9962 71.8867 87.1254 72.0457 87.1254H88.0185C88.1774 87.1254 88.3063 86.9962 88.3063 86.8367V85.9051C88.3063 85.7456 88.1774 85.6164 88.0185 85.6164Z" fill="#D1D1D1"/>
<path d="M132.042 41.1271L132.025 23.9714L149.144 41.1108L132.042 41.1271Z" fill="#D1D1D1"/>
<path d="M77.3178 47.575H41.9441C40.5767 47.575 39.4691 48.6869 39.4702 50.0585L39.4849 68.9461C39.486 70.3177 40.5953 71.4296 41.9627 71.4296H77.3363C78.7037 71.4296 79.8113 70.3177 79.8103 68.9461L79.7956 50.0585C79.7945 48.6869 78.6851 47.575 77.3178 47.575Z" fill="#0048D9"/>
<path d="M56.6186 59.7476L56.401 60.5673L58.2938 60.5667L58.0892 59.7472C57.9619 59.3011 57.8391 58.8273 57.7211 58.3266C57.6027 57.8259 57.4846 57.3432 57.3665 56.8791H57.3118C57.203 57.3525 57.0899 57.8396 56.9722 58.3406C56.8634 58.8323 56.7453 59.3014 56.6186 59.7476ZM53.4067 64.2565L56.1811 55.3497L58.5914 55.3487L61.3727 64.2532L59.2484 64.2542L58.7028 62.1373L55.9931 62.1383L55.4491 64.2555L53.4067 64.2565ZM62.3428 64.2529L62.3392 55.347L64.3411 55.3464L64.3444 64.2522L62.3428 64.2529Z" fill="white"/>
<path d="M9.28662 114.113C9.28662 111.173 11.6625 108.79 14.5933 108.79H84.2433C87.1742 108.79 89.55 111.173 89.55 114.113V134.197C89.55 137.137 87.1742 139.521 84.2433 139.521H36.5244L24.5979 144.721V139.521H14.5933C11.6625 139.521 9.28662 137.137 9.28662 134.197V114.113Z" fill="#CCDDFF"/>
<path d="M184.075 75.5211C184.075 72.5811 181.699 70.1981 178.768 70.1981H108.787C105.856 70.1981 103.48 72.5811 103.48 75.5211V120.211C103.48 123.151 105.856 125.534 108.787 125.534H156.724L168.701 130.748V125.534H178.768C181.699 125.534 184.075 123.151 184.075 120.211V75.5211Z" fill="#FFE299"/>
<path fill-rule="evenodd" clip-rule="evenodd" d="M15.9199 116.775C15.9199 116.04 16.5139 115.444 17.2466 115.444H82.5849C83.3176 115.444 83.9116 116.04 83.9116 116.775V117.108C83.9116 117.843 83.3176 118.438 82.5849 118.438H17.2466C16.5139 118.438 15.9199 117.843 15.9199 117.108V116.775ZM15.9199 123.429C15.9199 122.694 16.5139 122.098 17.2466 122.098H82.5849C83.3176 122.098 83.9116 122.694 83.9116 123.429V123.762C83.9116 124.496 83.3176 125.092 82.5849 125.092H17.2466C16.5139 125.092 15.9199 124.496 15.9199 123.762V123.429ZM17.2466 129.085C16.5139 129.085 15.9199 129.68 15.9199 130.415V130.748C15.9199 131.483 16.5139 132.079 17.2466 132.079H59.3683C60.1009 132.079 60.6949 131.483 60.6949 130.748V130.415C60.6949 129.68 60.1009 129.085 59.3683 129.085H17.2466Z" fill="#002A80"/>
<path fill-rule="evenodd" clip-rule="evenodd" d="M111.896 80.943C113.163 80.943 114.191 79.912 114.191 78.6405C114.191 77.3689 113.163 76.3379 111.896 76.3379C110.628 76.3379 109.6 77.3689 109.6 78.6405C109.6 79.912 110.628 80.943 111.896 80.943ZM111.896 88.6183C113.163 88.6183 114.191 87.5872 114.191 86.3157C114.191 85.0442 113.163 84.0131 111.896 84.0131C110.628 84.0131 109.6 85.0442 109.6 86.3157C109.6 87.5872 110.628 88.6183 111.896 88.6183ZM114.191 93.9906C114.191 95.2621 113.163 96.2931 111.896 96.2931C110.628 96.2931 109.6 95.2621 109.6 93.9906C109.6 92.719 110.628 91.688 111.896 91.688C113.163 91.688 114.191 92.719 114.191 93.9906ZM111.896 103.968C113.163 103.968 114.191 102.937 114.191 101.666C114.191 100.394 113.163 99.3632 111.896 99.3632C110.628 99.3632 109.6 100.394 109.6 101.666C109.6 102.937 110.628 103.968 111.896 103.968ZM114.191 109.341C114.191 110.613 113.163 111.644 111.896 111.644C110.628 111.644 109.6 110.613 109.6 109.341C109.6 108.069 110.628 107.038 111.896 107.038C113.163 107.038 114.191 108.069 114.191 109.341ZM111.896 119.318C113.163 119.318 114.191 118.287 114.191 117.016C114.191 115.744 113.163 114.713 111.896 114.713C110.628 114.713 109.6 115.744 109.6 117.016C109.6 118.287 110.628 119.318 111.896 119.318ZM117.252 78.4362C117.252 77.7013 117.846 77.1054 118.579 77.1054H165.66C166.392 77.1054 166.986 77.7013 166.986 78.4362V78.8448C166.986 79.5797 166.392 80.1755 165.66 80.1755H118.579C117.846 80.1755 117.252 79.5797 117.252 78.8448V78.4362ZM118.579 84.7807C117.846 84.7807 117.252 85.3762 117.252 86.1114V86.5196C117.252 87.2549 117.846 87.8504 118.579 87.8504H157.243C157.976 87.8504 158.57 87.2549 158.57 86.5196V86.1114C158.57 85.3762 157.976 84.7807 157.243 84.7807H118.579ZM117.252 93.7866C117.252 93.0514 117.846 92.4559 118.579 92.4559H172.546C173.278 92.4559 173.872 93.0514 173.872 93.7866V94.1948C173.872 94.9301 173.278 95.5256 172.546 95.5256H118.579C117.846 95.5256 117.252 94.9301 117.252 94.1948V93.7866ZM118.579 100.131C117.846 100.131 117.252 100.726 117.252 101.462V101.87C117.252 102.605 117.846 103.2 118.579 103.2H161.069C161.801 103.2 162.395 102.605 162.395 101.87V101.462C162.395 100.726 161.801 100.131 161.069 100.131H118.579ZM117.252 109.136C117.252 108.401 117.846 107.806 118.579 107.806H149.209C149.942 107.806 150.536 108.401 150.536 109.136V109.545C150.536 110.28 149.942 110.876 149.209 110.876H118.579C117.846 110.876 117.252 110.28 117.252 109.545V109.136ZM118.579 115.481C117.846 115.481 117.252 116.077 117.252 116.812V117.22C117.252 117.955 117.846 118.551 118.579 118.551H165.66C166.392 118.551 166.986 117.955 166.986 117.22V116.812C166.986 116.077 166.392 115.481 165.66 115.481H118.579Z" fill="#1A1A1A"/>
<path fill-rule="evenodd" clip-rule="evenodd" d="M171.375 36.31C171.061 35.995 171.061 35.4843 171.375 35.1689C171.69 34.8539 172.199 34.8539 172.513 35.1689L174.218 36.8806C174.533 37.196 174.533 37.7067 174.218 38.0217C173.904 38.3371 173.395 38.3371 173.081 38.0217L171.375 36.31ZM175.356 40.304C175.042 39.9886 175.042 39.4779 175.356 39.1629C175.671 38.8475 176.18 38.8475 176.494 39.1629L178.199 40.8746C178.514 41.1896 178.514 41.7003 178.199 42.0157C177.885 42.3308 177.376 42.3308 177.062 42.0157L175.356 40.304ZM171.375 42.0157C171.69 42.3308 172.199 42.3308 172.513 42.0157L174.218 40.304C174.533 39.9886 174.533 39.4779 174.218 39.1629C173.904 38.8475 173.395 38.8475 173.081 39.1629L171.375 40.8746C171.061 41.1896 171.061 41.7003 171.375 42.0157ZM176.495 38.0221C176.181 38.3371 175.672 38.3371 175.358 38.0221C175.044 37.707 175.044 37.196 175.358 36.8809L177.064 35.1692C177.378 34.8542 177.887 34.8542 178.201 35.1692C178.515 35.4843 178.515 35.9953 178.201 36.3104L176.495 38.0221Z" fill="#3D99F5"/>
<path fill-rule="evenodd" clip-rule="evenodd" d="M28.4272 160.404C28.1131 160.089 28.1131 159.579 28.4272 159.263C28.7412 158.948 29.2504 158.948 29.5644 159.263L31.2702 160.975C31.5843 161.29 31.5843 161.801 31.2702 162.116C30.9562 162.431 30.4471 162.431 30.133 162.116L28.4272 160.404ZM32.4082 164.398C32.0942 164.083 32.0942 163.572 32.4082 163.257C32.7222 162.942 33.2313 162.942 33.5454 163.257L35.2512 164.969C35.5653 165.284 35.5653 165.795 35.2512 166.11C34.9371 166.425 34.428 166.425 34.1139 166.11L32.4082 164.398ZM28.4272 166.11C28.7412 166.425 29.2504 166.425 29.5644 166.11L31.2702 164.398C31.5843 164.083 31.5843 163.572 31.2702 163.257C30.9562 162.942 30.4471 162.942 30.133 163.257L28.4272 164.969C28.1131 165.284 28.1131 165.795 28.4272 166.11ZM33.5471 162.116C33.233 162.431 32.7238 162.431 32.4098 162.116C32.0957 161.801 32.0957 161.29 32.4098 160.975L34.1155 159.263C34.4296 158.948 34.9387 158.948 35.2528 159.263C35.5669 159.579 35.5669 160.09 35.2528 160.405L33.5471 162.116Z" fill="#3D99F5"/>
<path fill-rule="evenodd" clip-rule="evenodd" d="M169.15 52.5654C169.15 54.5865 167.516 56.225 165.502 56.225C163.487 56.225 161.853 54.5865 161.853 52.5654C161.853 50.5443 163.487 48.9058 165.502 48.9058C167.516 48.9058 169.15 50.5443 169.15 52.5654ZM163.678 52.5654C163.678 53.5761 164.494 54.3952 165.502 54.3952C166.509 54.3952 167.326 53.5761 167.326 52.5654C167.326 51.5547 166.509 50.7356 165.502 50.7356C164.494 50.7356 163.678 51.5547 163.678 52.5654Z" fill="#FF5975"/>
<path fill-rule="evenodd" clip-rule="evenodd" d="M21.5584 152.706C21.5584 154.727 19.925 156.365 17.9101 156.365C15.8951 156.365 14.2617 154.727 14.2617 152.706C14.2617 150.685 15.8951 149.046 17.9101 149.046C19.925 149.046 21.5584 150.685 21.5584 152.706ZM16.0862 152.706C16.0862 153.716 16.9029 154.536 17.9104 154.536C18.9178 154.536 19.7345 153.716 19.7345 152.706C19.7345 151.695 18.9178 150.876 17.9104 150.876C16.9029 150.876 16.0862 151.695 16.0862 152.706Z" fill="#FF5975"/>
</svg>
