<svg width="21" height="21" viewBox="0 0 21 21" fill="none" xmlns="http://www.w3.org/2000/svg">
<path d="M10.25 6.33301V17.9997" stroke="black" stroke-width="1.5" stroke-linecap="round" stroke-linejoin="round"/>
<path d="M2.7513 15.5C2.53029 15.5 2.31833 15.4122 2.16205 15.2559C2.00577 15.0996 1.91797 14.8877 1.91797 14.6667V3.83333C1.91797 3.61232 2.00577 3.40036 2.16205 3.24408C2.31833 3.0878 2.53029 3 2.7513 3H6.91797C7.80202 3 8.64987 3.35119 9.27499 3.97631C9.90011 4.60143 10.2513 5.44928 10.2513 6.33333C10.2513 5.44928 10.6025 4.60143 11.2276 3.97631C11.8527 3.35119 12.7006 3 13.5846 3H17.7513C17.9723 3 18.1843 3.0878 18.3406 3.24408C18.4968 3.40036 18.5846 3.61232 18.5846 3.83333V14.6667C18.5846 14.8877 18.4968 15.0996 18.3406 15.2559C18.1843 15.4122 17.9723 15.5 17.7513 15.5H12.7513C12.0883 15.5 11.4524 15.7634 10.9835 16.2322C10.5147 16.7011 10.2513 17.337 10.2513 18C10.2513 17.337 9.98791 16.7011 9.51907 16.2322C9.05023 15.7634 8.41434 15.5 7.7513 15.5H2.7513Z" stroke="black" stroke-width="1.5" stroke-linecap="round" stroke-linejoin="round"/>
</svg>
