<svg width="54" height="53" viewBox="0 0 54 53" fill="none" xmlns="http://www.w3.org/2000/svg">
<path d="M9.33331 17.6667V8.83335C9.33331 7.66198 9.79864 6.53858 10.6269 5.7103C11.4552 4.88201 12.5786 4.41669 13.75 4.41669H32.5208L44.6666 16.5625V44.1667C44.6666 45.3381 44.2013 46.4615 43.373 47.2897C42.5448 48.118 41.4214 48.5834 40.25 48.5834H9.33331" stroke="#2563EB" stroke-width="2" stroke-linecap="round" stroke-linejoin="round"/>
<path d="M31.4167 4.41669V17.6667H44.6667" stroke="#2563EB" stroke-width="2" stroke-linecap="round" stroke-linejoin="round"/>
<path d="M22.5833 34.2292L31.4166 39.75V26.5L22.5833 32.0208" stroke="#2563EB" stroke-width="2" stroke-linecap="round" stroke-linejoin="round"/>
<path d="M20.375 26.5H7.12502C5.90539 26.5 4.91669 27.4887 4.91669 28.7083V37.5417C4.91669 38.7613 5.90539 39.75 7.12502 39.75H20.375C21.5947 39.75 22.5834 38.7613 22.5834 37.5417V28.7083C22.5834 27.4887 21.5947 26.5 20.375 26.5Z" fill="#EFF6FF" stroke="#2563EB" stroke-width="2" stroke-linecap="round" stroke-linejoin="round"/>
</svg>
