<svg width="21" height="21" viewBox="0 0 21 21" fill="none" xmlns="http://www.w3.org/2000/svg">
<path d="M10.75 14.667H10.7583" stroke="black" stroke-width="1.5" stroke-linecap="round" stroke-linejoin="round"/>
<path d="M13.2487 2.16699H5.7487C5.30667 2.16699 4.88275 2.34259 4.57019 2.65515C4.25763 2.96771 4.08203 3.39163 4.08203 3.83366V17.167C4.08203 17.609 4.25763 18.0329 4.57019 18.3455C4.88275 18.6581 5.30667 18.8337 5.7487 18.8337H15.7487C16.1907 18.8337 16.6146 18.6581 16.9272 18.3455C17.2398 18.0329 17.4154 17.609 17.4154 17.167V6.33366L13.2487 2.16699Z" stroke="black" stroke-width="1.5" stroke-linecap="round" stroke-linejoin="round"/>
<path d="M8.33203 7.99982C8.53201 7.44867 8.91934 6.98535 9.42631 6.69084C9.93327 6.39633 10.5276 6.28937 11.1055 6.38865C11.6833 6.48793 12.2078 6.78715 12.5874 7.23399C12.967 7.68083 13.1775 8.24686 13.182 8.83315C13.182 10.4998 10.682 11.3331 10.682 11.3331" stroke="black" stroke-width="1.5" stroke-linecap="round" stroke-linejoin="round"/>
</svg>
