<svg width="21" height="21" viewBox="0 0 21 21" fill="none" xmlns="http://www.w3.org/2000/svg">
<path d="M16.918 17.1667C17.36 17.1667 17.7839 16.9911 18.0965 16.6785C18.409 16.366 18.5846 15.942 18.5846 15.5V7.16667C18.5846 6.72464 18.409 6.30072 18.0965 5.98816C17.7839 5.67559 17.36 5.5 16.918 5.5H10.3346C10.0559 5.50273 9.78092 5.43551 9.53489 5.30448C9.28885 5.17346 9.0796 4.98281 8.9263 4.75L8.2513 3.75C8.09954 3.51956 7.89295 3.3304 7.65005 3.1995C7.40715 3.06859 7.13556 3.00005 6.85964 3H3.58464C3.14261 3 2.71868 3.17559 2.40612 3.48816C2.09356 3.80072 1.91797 4.22464 1.91797 4.66667V15.5C1.91797 15.942 2.09356 16.366 2.40612 16.6785C2.71868 16.9911 3.14261 17.1667 3.58464 17.1667H16.918Z" stroke="black" stroke-width="1.5" stroke-linecap="round" stroke-linejoin="round"/>
<path d="M10.25 8.83301V13.833" stroke="black" stroke-width="1.5" stroke-linecap="round" stroke-linejoin="round"/>
<path d="M12.75 11.333L10.25 13.833L7.75 11.333" stroke="black" stroke-width="1.5" stroke-linecap="round" stroke-linejoin="round"/>
</svg>
