<svg width="627" height="117" viewBox="0 0 627 117" fill="none" xmlns="http://www.w3.org/2000/svg">
<mask id="path-1-inside-1_76_1170" fill="white">
<path d="M0 0H627V117H0V0Z"/>
</mask>
<path d="M0 0H627V117H0V0Z" fill="white"/>
<path d="M0 0V1H627V0V-1H0V0Z" fill="#D9D9D9" mask="url(#path-1-inside-1_76_1170)"/>
<path d="M35 42C36.49 40.54 38 38.79 38 36.5C38 35.0413 37.4205 33.6424 36.3891 32.6109C35.3576 31.5795 33.9587 31 32.5 31C30.74 31 29.5 31.5 28 33C26.5 31.5 25.26 31 23.5 31C22.0413 31 20.6424 31.5795 19.6109 32.6109C18.5795 33.6424 18 35.0413 18 36.5C18 38.8 19.5 40.55 21 42L28 49L35 42Z" stroke="black" stroke-linecap="round" stroke-linejoin="round"/>
<path d="M118.167 32.702C118.167 32.5627 118.125 32.4266 118.048 32.3109C117.97 32.1951 117.86 32.1049 117.731 32.0517C117.603 31.9984 117.461 31.9844 117.324 32.0115C117.188 32.0387 117.062 32.1056 116.964 32.204L113.58 35.587C113.449 35.7184 113.294 35.8226 113.123 35.8935C112.951 35.9643 112.768 36.0006 112.583 36H110.167C109.902 36 109.647 36.1054 109.46 36.2929C109.272 36.4805 109.167 36.7348 109.167 37V43C109.167 43.2652 109.272 43.5196 109.46 43.7071C109.647 43.8947 109.902 44 110.167 44H112.583C112.768 43.9995 112.951 44.0357 113.123 44.1066C113.294 44.1775 113.449 44.2817 113.58 44.413L116.963 47.797C117.061 47.8958 117.187 47.9631 117.324 47.9904C117.461 48.0177 117.603 48.0037 117.732 47.9503C117.861 47.8968 117.971 47.8063 118.048 47.6902C118.126 47.5741 118.167 47.4376 118.167 47.298V32.702Z" stroke="black" stroke-linecap="round" stroke-linejoin="round"/>
<path d="M123.167 37C123.816 37.8655 124.167 38.9181 124.167 40C124.167 41.0819 123.816 42.1345 123.167 43" stroke="black" stroke-linecap="round" stroke-linejoin="round"/>
<path d="M126.531 46.364C127.367 45.5283 128.029 44.5361 128.482 43.4442C128.934 42.3522 129.167 41.1819 129.167 40C129.167 38.8181 128.934 37.6477 128.482 36.5558C128.029 35.4639 127.367 34.4717 126.531 33.636" stroke="black" stroke-linecap="round" stroke-linejoin="round"/>
<path d="M217.333 32L207.333 40L217.333 48V32Z" stroke="black" stroke-linecap="round" stroke-linejoin="round"/>
<path d="M203.333 33V47" stroke="black" stroke-linecap="round" stroke-linejoin="round"/>
<path d="M289.5 40C289.5 26.7452 300.245 16 313.5 16C326.755 16 337.5 26.7452 337.5 40C337.5 53.2548 326.755 64 313.5 64C300.245 64 289.5 53.2548 289.5 40Z" fill="#007AFF"/>
<path d="M318.5 32H316.5C315.948 32 315.5 32.4477 315.5 33V47C315.5 47.5523 315.948 48 316.5 48H318.5C319.052 48 319.5 47.5523 319.5 47V33C319.5 32.4477 319.052 32 318.5 32Z" stroke="white" stroke-linecap="round" stroke-linejoin="round"/>
<path d="M310.5 32H308.5C307.948 32 307.5 32.4477 307.5 33V47C307.5 47.5523 307.948 48 308.5 48H310.5C311.052 48 311.5 47.5523 311.5 47V33C311.5 32.4477 311.052 32 310.5 32Z" stroke="white" stroke-linecap="round" stroke-linejoin="round"/>
<path d="M409.667 32L419.667 40L409.667 48V32Z" stroke="black" stroke-linecap="round" stroke-linejoin="round"/>
<path d="M423.667 33V47" stroke="black" stroke-linecap="round" stroke-linejoin="round"/>
<path d="M516.833 40C516.833 37.6131 515.885 35.3239 514.197 33.636C512.51 31.9482 510.22 31 507.833 31C505.317 31.0095 502.902 31.9912 501.093 33.74L498.833 36" stroke="black" stroke-linecap="round" stroke-linejoin="round"/>
<path d="M498.833 31V36H503.833" stroke="black" stroke-linecap="round" stroke-linejoin="round"/>
<path d="M498.833 40C498.833 42.3869 499.782 44.6761 501.47 46.364C503.157 48.0518 505.447 49 507.833 49C510.35 48.9905 512.765 48.0088 514.573 46.26L516.833 44" stroke="black" stroke-linecap="round" stroke-linejoin="round"/>
<path d="M511.833 44H516.833V49" stroke="black" stroke-linecap="round" stroke-linejoin="round"/>
<path d="M605 42L609 46L605 50" stroke="black" stroke-linecap="round" stroke-linejoin="round"/>
<path d="M605 30L609 34L605 38" stroke="black" stroke-linecap="round" stroke-linejoin="round"/>
<path d="M589 46.0001H590.973C591.619 46.0045 592.257 45.8522 592.832 45.5561C593.407 45.26 593.901 44.829 594.273 44.3001L599.727 35.7001C600.099 35.1711 600.593 34.7402 601.168 34.4441C601.743 34.148 602.381 33.9957 603.027 34.0001H609" stroke="black" stroke-linecap="round" stroke-linejoin="round"/>
<path d="M589 34.0001H590.972C591.717 33.9949 592.45 34.1981 593.086 34.5869C593.722 34.9756 594.237 35.5344 594.572 36.2001" stroke="black" stroke-linecap="round" stroke-linejoin="round"/>
<path d="M609 46H602.959C602.303 45.9933 601.66 45.8257 601.084 45.5118C600.509 45.1979 600.019 44.7474 599.659 44.2L599.3 43.75" stroke="black" stroke-linecap="round" stroke-linejoin="round"/>
<rect x="16" y="86.5" width="555" height="8" rx="4" fill="#F3F4F6"/>
<rect x="16" y="86.5" width="37" height="8" rx="4" fill="#9CA3AF"/>
<path d="M588.876 95V86.04H587.532V84.878H590.164V95H588.876ZM594.788 94.216C594.788 94.706 594.41 95.084 593.948 95.084C593.458 95.084 593.08 94.706 593.08 94.216C593.08 93.726 593.458 93.348 593.948 93.348C594.41 93.348 594.788 93.726 594.788 94.216ZM594.788 88.224C594.788 88.714 594.41 89.092 593.948 89.092C593.458 89.092 593.08 88.714 593.08 88.224C593.08 87.734 593.458 87.356 593.948 87.356C594.41 87.356 594.788 87.734 594.788 88.224ZM602.165 95V92.746H596.985V91.78L601.899 84.976H603.425V91.64H604.825V92.746H603.425V95H602.165ZM598.455 91.64H602.221V86.306L598.455 91.64ZM608.086 95V86.04H606.742V84.878H609.374V95H608.086Z" fill="#838383"/>
</svg>
