<svg width="49" height="48" viewBox="0 0 49 48" fill="none" xmlns="http://www.w3.org/2000/svg">
<path d="M0.75 24C0.75 10.7452 11.4952 0 24.75 0C38.0048 0 48.75 10.7452 48.75 24C48.75 37.2548 38.0048 48 24.75 48C11.4952 48 0.75 37.2548 0.75 24Z" fill="url(#paint0_linear_1_5403)"/>
<path d="M27.75 30H22.75" stroke="black" stroke-width="1.5" stroke-linecap="round" stroke-linejoin="round"/>
<path d="M30.75 26H22.75" stroke="black" stroke-width="1.5" stroke-linecap="round" stroke-linejoin="round"/>
<path d="M16.75 34H32.75C33.2804 34 33.7891 33.7893 34.1642 33.4142C34.5393 33.0391 34.75 32.5304 34.75 32V16C34.75 15.4696 34.5393 14.9609 34.1642 14.5858C33.7891 14.2107 33.2804 14 32.75 14H20.75C20.2196 14 19.7109 14.2107 19.3358 14.5858C18.9607 14.9609 18.75 15.4696 18.75 16V32C18.75 32.5304 18.5393 33.0391 18.1642 33.4142C17.7891 33.7893 17.2804 34 16.75 34ZM16.75 34C16.2196 34 15.7109 33.7893 15.3358 33.4142C14.9607 33.0391 14.75 32.5304 14.75 32V23C14.75 22.4696 14.9607 21.9609 15.3358 21.5858C15.7109 21.2107 16.2196 21 16.75 21H18.75" stroke="black" stroke-width="1.5" stroke-linecap="round" stroke-linejoin="round"/>
<path d="M29.75 18H23.75C23.1977 18 22.75 18.4477 22.75 19V21C22.75 21.5523 23.1977 22 23.75 22H29.75C30.3023 22 30.75 21.5523 30.75 21V19C30.75 18.4477 30.3023 18 29.75 18Z" stroke="black" stroke-width="1.5" stroke-linecap="round" stroke-linejoin="round"/>
<defs>
<linearGradient id="paint0_linear_1_5403" x1="24.75" y1="0" x2="24.75" y2="48" gradientUnits="userSpaceOnUse">
<stop stop-color="#F9FAFA"/>
<stop offset="1" stop-color="#EEEFF1"/>
</linearGradient>
</defs>
</svg>
