<svg width="49" height="48" viewBox="0 0 49 48" fill="none" xmlns="http://www.w3.org/2000/svg">
<path d="M0.25 24C0.25 10.7452 10.9952 0 24.25 0C37.5048 0 48.25 10.7452 48.25 24C48.25 37.2548 37.5048 48 24.25 48C10.9952 48 0.25 37.2548 0.25 24Z" fill="url(#paint0_linear_1_5411)"/>
<path d="M15.25 26H18.25C18.7804 26 19.2891 26.2107 19.6642 26.5858C20.0393 26.9609 20.25 27.4696 20.25 28V31C20.25 31.5304 20.0393 32.0391 19.6642 32.4142C19.2891 32.7893 18.7804 33 18.25 33H17.25C16.7196 33 16.2109 32.7893 15.8358 32.4142C15.4607 32.0391 15.25 31.5304 15.25 31V24C15.25 21.6131 16.1982 19.3239 17.886 17.636C19.5739 15.9482 21.8631 15 24.25 15C26.6369 15 28.9261 15.9482 30.614 17.636C32.3018 19.3239 33.25 21.6131 33.25 24V31C33.25 31.5304 33.0393 32.0391 32.6642 32.4142C32.2891 32.7893 31.7804 33 31.25 33H30.25C29.7196 33 29.2109 32.7893 28.8358 32.4142C28.4607 32.0391 28.25 31.5304 28.25 31V28C28.25 27.4696 28.4607 26.9609 28.8358 26.5858C29.2109 26.2107 29.7196 26 30.25 26H33.25" stroke="black" stroke-width="1.5" stroke-linecap="round" stroke-linejoin="round"/>
<defs>
<linearGradient id="paint0_linear_1_5411" x1="24.25" y1="0" x2="24.25" y2="48" gradientUnits="userSpaceOnUse">
<stop stop-color="#F9FAFA"/>
<stop offset="1" stop-color="#EEEFF1"/>
</linearGradient>
</defs>
</svg>
