<svg width="49" height="48" viewBox="0 0 49 48" fill="none" xmlns="http://www.w3.org/2000/svg">
<path d="M0.75 24C0.75 10.7452 11.4952 0 24.75 0C38.0048 0 48.75 10.7452 48.75 24C48.75 37.2548 38.0048 48 24.75 48C11.4952 48 0.75 37.2548 0.75 24Z" fill="url(#paint0_linear_1_5416)"/>
<path d="M24.75 19V33" stroke="black" stroke-width="1.5" stroke-linecap="round" stroke-linejoin="round"/>
<path d="M15.75 30C15.4848 30 15.2304 29.8946 15.0429 29.7071C14.8554 29.5196 14.75 29.2652 14.75 29V16C14.75 15.7348 14.8554 15.4804 15.0429 15.2929C15.2304 15.1054 15.4848 15 15.75 15H20.75C21.8109 15 22.8283 15.4214 23.5784 16.1716C24.3286 16.9217 24.75 17.9391 24.75 19C24.75 17.9391 25.1714 16.9217 25.9216 16.1716C26.6717 15.4214 27.6891 15 28.75 15H33.75C34.0152 15 34.2696 15.1054 34.4571 15.2929C34.6446 15.4804 34.75 15.7348 34.75 16V29C34.75 29.2652 34.6446 29.5196 34.4571 29.7071C34.2696 29.8946 34.0152 30 33.75 30H27.75C26.9544 30 26.1913 30.3161 25.6287 30.8787C25.0661 31.4413 24.75 32.2044 24.75 33C24.75 32.2044 24.4339 31.4413 23.8713 30.8787C23.3087 30.3161 22.5456 30 21.75 30H15.75Z" stroke="black" stroke-width="1.5" stroke-linecap="round" stroke-linejoin="round"/>
<defs>
<linearGradient id="paint0_linear_1_5416" x1="24.75" y1="0" x2="24.75" y2="48" gradientUnits="userSpaceOnUse">
<stop stop-color="#F9FAFA"/>
<stop offset="1" stop-color="#EEEFF1"/>
</linearGradient>
</defs>
</svg>
