<svg width="49" height="48" viewBox="0 0 49 48" fill="none" xmlns="http://www.w3.org/2000/svg">
<rect x="0.25" width="48" height="48" rx="24" fill="#0081BF"/>
<path d="M28.25 25L33.473 28.482C33.5483 28.5321 33.6358 28.5608 33.7261 28.5652C33.8164 28.5695 33.9063 28.5492 33.986 28.5065C34.0657 28.4638 34.1324 28.4003 34.1789 28.3227C34.2254 28.2452 34.25 28.1564 34.25 28.066V19.87C34.25 19.782 34.2268 19.6956 34.1828 19.6194C34.1387 19.5433 34.0753 19.4801 33.9991 19.4363C33.9228 19.3925 33.8363 19.3695 33.7483 19.3698C33.6603 19.3701 33.574 19.3937 33.498 19.438L28.25 22.5" stroke="white" stroke-width="1.5" stroke-linecap="round" stroke-linejoin="round"/>
<path d="M26.25 18H16.25C15.1454 18 14.25 18.8954 14.25 20V28C14.25 29.1046 15.1454 30 16.25 30H26.25C27.3546 30 28.25 29.1046 28.25 28V20C28.25 18.8954 27.3546 18 26.25 18Z" stroke="white" stroke-width="1.5" stroke-linecap="round" stroke-linejoin="round"/>
</svg>
