<svg width="101" height="67" viewBox="0 0 101 67" fill="none" xmlns="http://www.w3.org/2000/svg">
<g clip-path="url(#clip0_1_5490)">
<g clip-path="url(#clip1_1_5490)">
<path opacity="0.3" d="M26.5454 30.7486C-0.386246 30.7486 -5.17016 56.44 15.0286 56.44C32.8885 56.44 34.9084 65.5825 55.6386 65.5825C68.1831 65.5825 70.0612 59.4875 85.9367 59.4875C101.706 59.4875 104.966 42.3717 81.33 42.3717C47.8781 42.3717 58.1543 30.7486 26.5454 30.7486Z" fill="url(#paint0_linear_1_5490)"/>
<path d="M20.5563 37.8713C20.4487 37.8732 20.3419 37.8535 20.2421 37.8132C20.1424 37.7729 20.0518 37.7129 19.9757 37.6369C19.8996 37.5608 19.8397 37.4702 19.7994 37.3704C19.7591 37.2707 19.7393 37.1638 19.7412 37.0563V23.8739C19.7393 23.7664 19.7591 23.6595 19.7994 23.5598C19.8397 23.46 19.8996 23.3694 19.9757 23.2933C20.0518 23.2173 20.1424 23.1573 20.2421 23.117C20.3419 23.0768 20.4487 23.057 20.5563 23.0589H40.0817C40.1893 23.057 40.2961 23.0768 40.3959 23.117C40.4956 23.1573 40.5862 23.2173 40.6623 23.2933C40.7384 23.3694 40.7984 23.46 40.8386 23.5598C40.8789 23.6595 40.8987 23.7664 40.8968 23.8739V37.0563C40.8987 37.1638 40.8789 37.2707 40.8386 37.3704C40.7984 37.4702 40.7384 37.5608 40.6623 37.6369C40.5862 37.7129 40.4956 37.7729 40.3959 37.8132C40.2961 37.8535 40.1893 37.8732 40.0817 37.8713H20.5563Z" fill="url(#paint1_linear_1_5490)"/>
<path d="M40.1171 23.2361C40.201 23.2356 40.2842 23.2518 40.3618 23.2837C40.4394 23.3156 40.5099 23.3626 40.5692 23.4219C40.6285 23.4812 40.6755 23.5517 40.7074 23.6293C40.7393 23.7069 40.7555 23.7901 40.755 23.874V37.0917C40.7555 37.1756 40.7393 37.2588 40.7074 37.3364C40.6755 37.414 40.6285 37.4845 40.5692 37.5438C40.5099 37.6031 40.4394 37.6501 40.3618 37.682C40.2842 37.7139 40.201 37.7301 40.1171 37.7296H20.5563C20.4724 37.7301 20.3892 37.7139 20.3116 37.682C20.234 37.6501 20.1635 37.6031 20.1042 37.5438C20.0449 37.4845 19.9979 37.414 19.966 37.3364C19.9341 37.2588 19.918 37.1756 19.9184 37.0917V23.874C19.918 23.7901 19.9341 23.7069 19.966 23.6293C19.9979 23.5517 20.0449 23.4812 20.1042 23.4219C20.1635 23.3626 20.234 23.3156 20.3116 23.2837C20.3892 23.2518 20.4724 23.2356 20.5563 23.2361H40.1171ZM40.1171 22.8817H20.5563C20.0247 22.8817 19.5641 23.307 19.5641 23.874V37.0917C19.5641 37.6233 19.9893 38.0839 20.5563 38.0839H40.0817C40.6133 38.0839 41.0739 37.6587 41.0739 37.0917V23.874C41.1094 23.307 40.6487 22.8817 40.1171 22.8817Z" fill="#E8EEF4"/>
<path d="M41.1097 24.4764H19.529V24.0866C19.5276 23.928 19.5578 23.7706 19.6178 23.6238C19.6778 23.477 19.7665 23.3436 19.8787 23.2315C19.9909 23.1193 20.1243 23.0306 20.2711 22.9706C20.4179 22.9105 20.5752 22.8803 20.7338 22.8817H39.8694C40.0281 22.8803 40.1854 22.9105 40.3322 22.9706C40.479 23.0306 40.6124 23.1193 40.7246 23.2315C40.8367 23.3436 40.9254 23.477 40.9855 23.6238C41.0455 23.7706 41.0757 23.928 41.0743 24.0866L41.1097 24.4764Z" fill="#E8EEF4"/>
<path d="M55.3548 27.7365C54.7878 27.7365 54.3626 27.2758 54.3626 26.7443V10.7625C54.3626 10.1955 54.8232 9.77026 55.3548 9.77026H78.4947C79.0617 9.77026 79.4869 10.2309 79.4869 10.7625V26.7443C79.4869 27.3113 79.0263 27.7365 78.4947 27.7365H55.3548Z" fill="url(#paint2_linear_1_5490)"/>
<path d="M78.4947 9.91201C78.6023 9.91009 78.7091 9.92986 78.8089 9.97014C78.9087 10.0104 78.9993 10.0704 79.0753 10.1465C79.1514 10.2225 79.2114 10.3131 79.2517 10.4129C79.2919 10.5126 79.3117 10.6195 79.3098 10.727V26.7088C79.3117 26.8164 79.2919 26.9233 79.2517 27.023C79.2114 27.1228 79.1514 27.2134 79.0753 27.2894C78.9993 27.3655 78.9087 27.4255 78.8089 27.4658C78.7091 27.506 78.6023 27.5258 78.4947 27.5239H55.3548C55.2472 27.5258 55.1404 27.506 55.0406 27.4658C54.9409 27.4255 54.8503 27.3655 54.7742 27.2894C54.6981 27.2134 54.6382 27.1228 54.5979 27.023C54.5576 26.9233 54.5378 26.8164 54.5398 26.7088V10.7625C54.5378 10.6549 54.5576 10.5481 54.5979 10.4483C54.6382 10.3486 54.6981 10.258 54.7742 10.1819C54.8503 10.1058 54.9409 10.0459 55.0406 10.0056C55.1404 9.9653 55.2472 9.94553 55.3548 9.94745H78.4947V9.91201ZM78.4947 9.55765H55.3548C55.0455 9.56042 54.7497 9.68452 54.531 9.90322C54.3123 10.1219 54.1882 10.4178 54.1854 10.727V26.7088C54.1882 27.0181 54.3123 27.314 54.531 27.5327C54.7497 27.7514 55.0455 27.8755 55.3548 27.8782H78.4947C78.804 27.8755 79.0999 27.7514 79.3186 27.5327C79.5373 27.314 79.6614 27.0181 79.6641 26.7088V10.7625C79.6641 10.0892 79.168 9.55765 78.4947 9.55765Z" fill="#E8EEF4"/>
<path opacity="0.7" d="M77.3253 12.2863V27.7011H54.1854V12.2863H77.3253Z" fill="url(#paint3_linear_1_5490)"/>
<path opacity="0.7" d="M87.4247 51.5852C87.4247 53.4633 71.2303 53.1089 51.2442 53.1089C31.2581 53.1089 15.0637 53.4633 15.0637 51.5852C15.0637 49.7071 31.2581 48.1479 51.2442 48.1479C71.2303 48.1479 87.4247 49.6716 87.4247 51.5852Z" fill="url(#paint4_radial_1_5490)"/>
<path d="M74.0297 46.376H27.6081C27.0057 46.376 26.545 45.9154 26.545 45.313V15.9008C26.545 15.2983 27.0057 14.8377 27.6081 14.8377H74.0297C74.6322 14.8377 75.0928 15.2983 75.0928 15.9008V45.313C75.0919 45.5946 74.9796 45.8645 74.7804 46.0636C74.5813 46.2628 74.3114 46.3751 74.0297 46.376Z" fill="url(#paint5_linear_1_5490)"/>
<path d="M74.0298 46.0217H27.6081C27.2183 46.0217 26.8994 45.7028 26.8994 45.313V15.9008C26.8994 15.511 27.2183 15.192 27.6081 15.192H74.0298C74.4195 15.192 74.7385 15.511 74.7385 15.9008V45.313C74.7385 45.7028 74.4195 46.0217 74.0298 46.0217Z" fill="url(#paint6_linear_1_5490)"/>
<path d="M74.7385 18.7357H26.8994V15.9008C26.8994 15.511 27.2183 15.192 27.6081 15.192H74.0298C74.4195 15.192 74.7385 15.511 74.7385 15.9008V18.7357Z" fill="url(#paint7_linear_1_5490)"/>
<path d="M71.2661 44.3207H30.0536C29.2031 44.3207 28.5298 43.6474 28.5298 42.797V21.7478C28.5298 20.8973 29.2031 20.224 30.0536 20.224H71.2661C72.1165 20.224 72.7898 20.8973 72.7898 21.7478V42.797C72.8253 43.6474 72.1165 44.3207 71.2661 44.3207Z" fill="white"/>
<path d="M71.4075 20.1531H70.3444V20.5075H71.4075V20.1531ZM68.9269 20.1531H67.8638V20.5075H68.9269V20.1531ZM66.4464 20.1531H65.3833V20.5075H66.4464V20.1531ZM63.9658 20.1531H62.9027V20.5075H63.9658V20.1531ZM61.4853 20.1531H60.4222V20.5075H61.4853V20.1531ZM59.0047 20.1531H57.9416V20.5075H59.0047V20.1531ZM56.5242 20.1531H55.4611V20.5075H56.5242V20.1531ZM54.0436 20.1531H52.9805V20.5075H54.0436V20.1531ZM51.5631 20.1531H50.5V20.5075H51.5631V20.1531ZM49.0826 20.1531H48.0195V20.5075H49.0826V20.1531ZM46.602 20.1531H45.5389V20.5075H46.602V20.1531ZM44.1215 20.1531H43.0584V20.5075H44.1215V20.1531ZM41.6409 20.1531H40.5778V20.5075H41.6409V20.1531ZM39.1604 20.1531H38.0973V20.5075H39.1604V20.1531ZM36.6798 20.1531H35.6167V20.5075H36.6798V20.1531ZM34.1993 20.1531H33.1362V20.5075H34.1993V20.1531ZM31.7187 20.1531H30.6556V20.5075H31.7187V20.1531ZM29.3091 20.4366C29.0256 20.6492 28.8129 20.9327 28.7066 21.2871L29.061 21.3934C29.1319 21.1454 29.3091 20.8973 29.5217 20.7556L29.3091 20.4366ZM29.0256 22.7046H28.6712V23.7676H29.0256V22.7046ZM29.0256 25.1851H28.6712V26.2482H29.0256V25.1851ZM29.0256 27.6656H28.6712V28.7287H29.0256V27.6656ZM29.0256 30.1462H28.6712V31.2093H29.0256V30.1462ZM29.0256 32.6267H28.6712V33.6898H29.0256V32.6267ZM29.0256 35.1073H28.6712V36.1704H29.0256V35.1073ZM29.0256 37.5878H28.6712V38.6509H29.0256V37.5878ZM29.0256 40.0684H28.6712V41.1315H29.0256V40.0684ZM29.0256 42.5489H28.6712V42.7261C28.7066 42.9742 28.7775 43.1868 28.9193 43.364L29.2027 43.1868C29.0964 43.0096 29.0256 42.7615 29.0256 42.5489ZM30.0887 43.8955L30.0532 44.2499H31.0809V43.8955H30.0887ZM33.6323 43.8955H32.5692V44.2499H33.6323V43.8955ZM36.1128 43.8955H35.0497V44.2499H36.1128V43.8955ZM38.5934 43.8955H37.5303V44.2499H38.5934V43.8955ZM41.0739 43.8955H40.0108V44.2499H41.0739V43.8955ZM43.5545 43.8955H42.4914V44.2499H43.5545V43.8955ZM46.035 43.8955H44.9719V44.2499H46.035V43.8955ZM48.5156 43.8955H47.4525V44.2499H48.5156V43.8955ZM50.9961 43.8955H49.933V44.2499H50.9961V43.8955ZM53.4767 43.8955H52.4136V44.2499H53.4767V43.8955ZM55.9572 43.8955H54.8941V44.2499H55.9572V43.8955ZM58.4377 43.8955H57.3747V44.2499H58.4377V43.8955ZM60.9183 43.8955H59.8552V44.2499H60.9183V43.8955ZM63.3988 43.8955H62.3357V44.2499H63.3988V43.8955ZM65.8794 43.8955H64.8163V44.2499H65.8794V43.8955ZM68.3599 43.8955H67.2968V44.2499H68.3599V43.8955ZM70.8405 43.8955H69.7774V44.2499H70.8405V43.8955ZM72.5414 43.1159C72.4351 43.364 72.2579 43.612 72.0453 43.7538L72.2225 44.0727C72.2934 44.0372 72.3642 44.0018 72.3997 43.9309C72.3997 43.8955 72.4351 43.8601 72.4351 43.8246L72.5414 43.1159ZM72.9667 40.7417H72.6123V41.8048H72.9667V40.7417ZM72.9667 38.2611H72.6123V39.3242H72.9667V38.2611ZM72.9667 35.7806H72.6123V36.8437H72.9667V35.7806ZM72.9667 33.3H72.6123V34.3631H72.9667V33.3ZM72.9667 30.8195H72.6123V31.8826H72.9667V30.8195ZM72.9667 28.3389H72.6123V29.402H72.9667V28.3389ZM72.9667 25.8584H72.6123V26.9215H72.9667V25.8584ZM72.9667 23.3778H72.6123V24.4409H72.9667V23.3778ZM72.754 20.9327L72.4351 21.1099C72.5414 21.2871 72.5769 21.4643 72.5769 21.6769V21.9604H72.9312V21.6769L72.754 20.9327C72.7895 20.9682 72.7895 20.9682 72.754 20.9327ZM71.4075 20.1531V20.5075H71.5846L71.6201 20.1531H71.4075Z" fill="url(#paint8_linear_1_5490)"/>
<path d="M55.2485 46.376H46.7437V50.274H55.2485V46.376Z" fill="url(#paint9_linear_1_5490)"/>
<path d="M55.9572 50.274H46.035V50.9828H55.9572V50.274Z" fill="url(#paint10_linear_1_5490)"/>
<path opacity="0.7" d="M56.9494 40.3164H46.1768C46.0182 40.3178 45.8609 40.2876 45.714 40.2276C45.5672 40.1676 45.4338 40.0789 45.3217 39.9667C45.2095 39.8545 45.1208 39.7212 45.0608 39.5743C45.0007 39.4275 44.9705 39.2702 44.9719 39.1116V24.7244H55.1422L58.1543 27.8783V39.1116C58.1506 39.43 58.0225 39.7343 57.7973 39.9595C57.5722 40.1846 57.2678 40.3127 56.9494 40.3164Z" fill="url(#paint11_radial_1_5490)"/>
<path d="M53.0518 24.0866H44.6534C44.4948 24.0851 44.3374 24.1153 44.1906 24.1754C44.0438 24.2354 43.9104 24.3241 43.7983 24.4363C43.6861 24.5485 43.5974 24.6818 43.5374 24.8287C43.4773 24.9755 43.4471 25.1328 43.4485 25.2914V37.8713C43.4471 38.0299 43.4773 38.1872 43.5374 38.3341C43.5974 38.4809 43.6861 38.6143 43.7983 38.7264C43.9104 38.8386 44.0438 38.9273 44.1906 38.9873C44.3374 39.0474 44.4948 39.0776 44.6534 39.0761H55.426C55.5846 39.0776 55.742 39.0474 55.8888 38.9873C56.0356 38.9273 56.169 38.8386 56.2811 38.7264C56.3933 38.6143 56.482 38.4809 56.542 38.3341C56.6021 38.1872 56.6323 38.0299 56.6309 37.8713V27.7011L53.0518 24.0866Z" fill="url(#paint12_linear_1_5490)"/>
<path d="M53.6542 27.7011H56.6663L53.0872 24.122V27.1341C53.0518 27.4176 53.2998 27.7011 53.6542 27.7011Z" fill="#D32630"/>
<path d="M64.1076 17.6726H29.3799C28.9901 17.6726 28.6712 17.3537 28.6712 16.9639C28.6712 16.5741 28.9901 16.2551 29.3799 16.2551H64.1076C64.4974 16.2551 64.8163 16.5741 64.8163 16.9639C64.8163 17.3537 64.4974 17.6726 64.1076 17.6726Z" fill="url(#paint13_linear_1_5490)"/>
<path d="M67.2968 17.6726C66.907 17.6726 66.5881 17.3537 66.5881 16.9639C66.5881 16.5741 66.907 16.2551 67.2968 16.2551C67.6866 16.2551 68.0056 16.5741 68.0056 16.9639C68.0056 17.3537 67.6866 17.6726 67.2968 17.6726Z" fill="url(#paint14_linear_1_5490)"/>
<path d="M69.7774 17.6726C69.3876 17.6726 69.0686 17.3537 69.0686 16.9639C69.0686 16.5741 69.3876 16.2551 69.7774 16.2551C70.1672 16.2551 70.4861 16.5741 70.4861 16.9639C70.4861 17.3537 70.1672 17.6726 69.7774 17.6726Z" fill="url(#paint15_linear_1_5490)"/>
<path d="M72.2579 17.6726C71.8681 17.6726 71.5492 17.3537 71.5492 16.9639C71.5492 16.5741 71.8681 16.2551 72.2579 16.2551C72.6477 16.2551 72.9666 16.5741 72.9666 16.9639C72.9666 17.3537 72.6477 17.6726 72.2579 17.6726Z" fill="url(#paint16_linear_1_5490)"/>
<path d="M79.6641 11.4712H54.1145V11.0105C54.1145 10.2309 54.7524 9.59308 55.532 9.59308H78.2112C78.9908 9.59308 79.6287 10.2309 79.6287 11.0105L79.6641 11.4712Z" fill="#E8EEF4"/>
<path d="M21.2296 24.0157C21.3236 24.0157 21.4137 23.9784 21.4801 23.9119C21.5466 23.8455 21.5839 23.7553 21.5839 23.6613C21.5839 23.5674 21.5466 23.4772 21.4801 23.4108C21.4137 23.3443 21.3236 23.307 21.2296 23.307C21.1356 23.307 21.0455 23.3443 20.979 23.4108C20.9125 23.4772 20.8752 23.5674 20.8752 23.6613C20.8752 23.7553 20.9125 23.8455 20.979 23.9119C21.0455 23.9784 21.1356 24.0157 21.2296 24.0157Z" fill="url(#paint17_linear_1_5490)"/>
<path d="M22.2927 24.0157C22.3866 24.0157 22.4768 23.9784 22.5432 23.9119C22.6097 23.8455 22.647 23.7553 22.647 23.6613C22.647 23.5674 22.6097 23.4772 22.5432 23.4108C22.4768 23.3443 22.3866 23.307 22.2927 23.307C22.1987 23.307 22.1085 23.3443 22.0421 23.4108C21.9756 23.4772 21.9383 23.5674 21.9383 23.6613C21.9383 23.7553 21.9756 23.8455 22.0421 23.9119C22.1085 23.9784 22.1987 24.0157 22.2927 24.0157Z" fill="url(#paint18_linear_1_5490)"/>
<path d="M65.9503 27.5593H65.2415V26.2482C65.2415 25.8584 65.0644 25.4686 64.7809 25.1851C64.4974 24.9016 64.1076 24.7598 63.7178 24.7598C62.9027 24.7953 62.2649 25.4686 62.2649 26.319V27.5593H61.5562V26.319C61.5562 25.0788 62.5129 24.0866 63.6823 24.0511C64.2848 24.0511 64.8517 24.2637 65.277 24.689C65.7022 25.1142 65.9503 25.6812 65.9503 26.2482V27.5593Z" fill="url(#paint19_linear_1_5490)"/>
<path d="M67.2968 32.9811H60.245V28.3035C60.245 27.9137 60.5639 27.5593 60.9892 27.5593H66.5881C66.9779 27.5593 67.3323 27.8783 67.3323 28.3035L67.2968 32.9811Z" fill="url(#paint20_linear_1_5490)"/>
<path d="M63.7532 30.4297C63.9036 30.4297 64.0478 30.3699 64.1541 30.2636C64.2604 30.1573 64.3202 30.0131 64.3202 29.8627C64.3202 29.7123 64.2604 29.5681 64.1541 29.4618C64.0478 29.3555 63.9036 29.2957 63.7532 29.2957C63.6028 29.2957 63.4586 29.3555 63.3523 29.4618C63.246 29.5681 63.1862 29.7123 63.1862 29.8627C63.1862 30.0131 63.246 30.1573 63.3523 30.2636C63.4586 30.3699 63.6028 30.4297 63.7532 30.4297Z" fill="white"/>
<path d="M64.0012 29.8981H63.5406V31.5991H64.0012V29.8981Z" fill="white"/>
<path d="M22.7182 20.5075C22.6709 20.5106 22.6234 20.5036 22.579 20.4869C22.5346 20.4702 22.4943 20.4442 22.4607 20.4106C22.4272 20.3771 22.4012 20.3368 22.3845 20.2923C22.3678 20.2479 22.3608 20.2005 22.3639 20.1531V14.8022C22.3625 14.2899 22.4624 13.7824 22.6577 13.3089C22.8531 12.8353 23.1402 12.405 23.5025 12.0428C23.8647 11.6806 24.295 11.3935 24.7685 11.1981C25.2421 11.0027 25.7496 10.9028 26.2619 10.9042H50.0397C50.087 10.9011 50.1345 10.9081 50.1789 10.9248C50.2233 10.9415 50.2637 10.9675 50.2972 11.0011C50.3308 11.0346 50.3568 11.075 50.3735 11.1194C50.3902 11.1638 50.3972 11.2112 50.3941 11.2586C50.3972 11.3059 50.3902 11.3534 50.3735 11.3978C50.3568 11.4422 50.3308 11.4826 50.2972 11.5161C50.2637 11.5497 50.2233 11.5757 50.1789 11.5924C50.1345 11.6091 50.087 11.6161 50.0397 11.613H26.2619C25.8425 11.6111 25.427 11.6923 25.0392 11.8519C24.6514 12.0115 24.2991 12.2464 24.0025 12.5429C23.706 12.8394 23.4712 13.1917 23.3116 13.5795C23.1519 13.9673 23.0707 14.3829 23.0726 14.8022V20.1531C23.066 20.2449 23.0266 20.3313 22.9615 20.3964C22.8964 20.4615 22.8101 20.5009 22.7182 20.5075Z" fill="url(#paint21_linear_1_5490)"/>
<path d="M75.7665 50.6284H67.9705C67.8765 50.6284 67.7864 50.5911 67.7199 50.5246C67.6535 50.4581 67.6161 50.368 67.6161 50.274C67.6161 50.18 67.6535 50.0899 67.7199 50.0235C67.7864 49.957 67.8765 49.9197 67.9705 49.9197H75.7665C76.1858 49.9215 76.6014 49.8403 76.9892 49.6807C77.377 49.5211 77.7293 49.2863 78.0258 48.9897C78.3224 48.6932 78.5572 48.3409 78.7168 47.9531C78.8764 47.5653 78.9576 47.1497 78.9558 46.7304V31.5282C78.9558 31.4342 78.9931 31.3441 79.0595 31.2776C79.126 31.2112 79.2161 31.1738 79.3101 31.1738C79.4041 31.1738 79.4942 31.2112 79.5607 31.2776C79.6271 31.3441 79.6645 31.4342 79.6645 31.5282V46.7304C79.6659 47.2427 79.566 47.7502 79.3706 48.2237C79.1752 48.6973 78.8882 49.1276 78.5259 49.4898C78.1637 49.8521 77.7334 50.1391 77.2598 50.3345C76.7863 50.5299 76.2788 50.6298 75.7665 50.6284Z" fill="url(#paint22_linear_1_5490)"/>
<path d="M36.8574 50.6284H26.2619C25.7496 50.6298 25.2421 50.5299 24.7685 50.3345C24.295 50.1391 23.8647 49.8521 23.5025 49.4898C23.1402 49.1276 22.8531 48.6973 22.6577 48.2238C22.4624 47.7502 22.3625 47.2427 22.3639 46.7304V41.2023C22.3608 41.155 22.3678 41.1075 22.3845 41.0631C22.4012 41.0187 22.4272 40.9783 22.4607 40.9448C22.4943 40.9112 22.5346 40.8852 22.579 40.8685C22.6234 40.8518 22.6709 40.8448 22.7182 40.848C22.7656 40.8448 22.8131 40.8518 22.8575 40.8685C22.9019 40.8852 22.9422 40.9112 22.9758 40.9448C23.0093 40.9783 23.0353 41.0187 23.052 41.0631C23.0687 41.1075 23.0757 41.155 23.0726 41.2023V46.7304C23.0707 47.1497 23.1519 47.5653 23.3116 47.9531C23.4712 48.3409 23.706 48.6932 24.0025 48.9897C24.2991 49.2863 24.6514 49.5211 25.0392 49.6807C25.427 49.8403 25.8425 49.9215 26.2619 49.9197H36.8574C36.9047 49.9165 36.9522 49.9236 36.9966 49.9403C37.041 49.957 37.0813 49.983 37.1149 50.0165C37.1484 50.0501 37.1744 50.0904 37.1911 50.1348C37.2078 50.1792 37.2149 50.2267 37.2117 50.274C37.2117 50.4866 37.0345 50.6284 36.8574 50.6284Z" fill="url(#paint23_linear_1_5490)"/>
<path d="M47.0272 30.3588H48.9762V30.784H47.5233V31.5282H48.9408V31.9534H47.5233V33.1937H47.0272V30.3588ZM49.366 30.536C49.366 30.3942 49.5078 30.2525 49.6495 30.2525C49.7913 30.2525 49.933 30.3588 49.933 30.536C49.933 30.7132 49.8267 30.8195 49.6495 30.8195C49.4723 30.784 49.366 30.6777 49.366 30.536ZM49.4015 31.1384H49.8621V33.1937H49.4015V31.1384ZM50.4291 30.3588H50.8898V33.1937H50.4291V30.3588ZM52.3781 31.103C52.9805 31.103 53.4058 31.5636 53.4058 32.2369V32.3432H51.8111C51.8466 32.6622 52.0946 32.9102 52.449 32.9102C52.6616 32.9102 52.8742 32.8394 53.016 32.6976L53.2286 32.9811C53.016 33.1937 52.7325 33.2646 52.3781 33.2646C51.7757 33.2646 51.315 32.8394 51.315 32.2015C51.315 31.5636 51.7757 31.103 52.3781 31.103ZM51.7757 31.9889H52.9451C52.9451 31.7408 52.7679 31.4573 52.3781 31.4573C51.9883 31.4573 51.8111 31.7408 51.7757 31.9889Z" fill="white"/>
<path opacity="0.7" d="M22.7183 22.8817H26.5454V38.013H22.7183V22.8817Z" fill="url(#paint24_linear_1_5490)"/>
<path d="M50.0397 12.1799C50.2841 12.1799 50.5184 12.0829 50.6912 11.9101C50.864 11.7373 50.9611 11.503 50.9611 11.2586C50.9611 11.0142 50.864 10.7799 50.6912 10.6071C50.5184 10.4343 50.2841 10.3372 50.0397 10.3372C49.7954 10.3372 49.561 10.4343 49.3882 10.6071C49.2154 10.7799 49.1184 11.0142 49.1184 11.2586C49.1184 11.503 49.2154 11.7373 49.3882 11.9101C49.561 12.0829 49.7954 12.1799 50.0397 12.1799ZM22.7179 42.1237C22.9623 42.1237 23.1966 42.0266 23.3694 41.8538C23.5422 41.681 23.6393 41.4467 23.6393 41.2023C23.6393 40.958 23.5422 40.7236 23.3694 40.5508C23.1966 40.378 22.9623 40.281 22.7179 40.281C22.4736 40.281 22.2392 40.378 22.0664 40.5508C21.8936 40.7236 21.7966 40.958 21.7966 41.2023C21.7966 41.4467 21.8936 41.681 22.0664 41.8538C22.2392 42.0266 22.4736 42.1237 22.7179 42.1237ZM68.0059 51.1954C68.2503 51.1954 68.4846 51.0983 68.6574 50.9255C68.8302 50.7527 68.9273 50.5184 68.9273 50.274C68.9273 50.0297 68.8302 49.7953 68.6574 49.6225C68.4846 49.4498 68.2503 49.3527 68.0059 49.3527C67.7616 49.3527 67.5272 49.4498 67.3545 49.6225C67.1817 49.7953 67.0846 50.0297 67.0846 50.274C67.0846 50.5184 67.1817 50.7527 67.3545 50.9255C67.5272 51.0983 67.7616 51.1954 68.0059 51.1954Z" fill="#94D4F8"/>
</g>
</g>
<defs>
<linearGradient id="paint0_linear_1_5490" x1="458.825" y1="3927.1" x2="26378.3" y2="3927.1" gradientUnits="userSpaceOnUse">
<stop stop-color="#BFD0E9" stop-opacity="0.6"/>
<stop offset="1" stop-color="#859CD6" stop-opacity="0.3"/>
</linearGradient>
<linearGradient id="paint1_linear_1_5490" x1="1146.14" y1="939.666" x2="2409.35" y2="939.666" gradientUnits="userSpaceOnUse">
<stop stop-color="#FAFCFD"/>
<stop offset="1" stop-color="#F9FBFD"/>
</linearGradient>
<linearGradient id="paint2_linear_1_5490" x1="3844.9" y1="527.09" x2="5628.06" y2="527.09" gradientUnits="userSpaceOnUse">
<stop stop-color="#FBFCFD"/>
<stop offset="1" stop-color="#F1F5FA"/>
</linearGradient>
<linearGradient id="paint3_linear_1_5490" x1="4290.02" y1="845.827" x2="4290.02" y2="175.02" gradientUnits="userSpaceOnUse">
<stop stop-color="#919FB9" stop-opacity="0.2"/>
<stop offset="0.191" stop-color="#95A3BC" stop-opacity="0.162"/>
<stop offset="0.392" stop-color="#A2AEC4" stop-opacity="0.122"/>
<stop offset="0.597" stop-color="#B7C0D1" stop-opacity="0.081"/>
<stop offset="0.803" stop-color="#D4DAE4" stop-opacity="0.039"/>
<stop offset="1" stop-color="#F7F9FB" stop-opacity="0"/>
</linearGradient>
<radialGradient id="paint4_radial_1_5490" cx="0" cy="0" r="1" gradientUnits="userSpaceOnUse" gradientTransform="translate(1392.06 408.687) scale(6844.99 45.0764)">
<stop stop-color="#919FB9"/>
<stop offset="0.198" stop-color="#9FACC2" stop-opacity="0.802"/>
<stop offset="0.575" stop-color="#C5CDDB" stop-opacity="0.425"/>
<stop offset="1" stop-color="#F7F9FB" stop-opacity="0"/>
</radialGradient>
<linearGradient id="paint5_linear_1_5490" x1="7562.57" y1="3224.84" x2="6935.57" y2="573.044" gradientUnits="userSpaceOnUse">
<stop stop-color="#D8E0EA"/>
<stop offset="0.475" stop-color="#E2E9F1"/>
<stop offset="1" stop-color="#E8EEF4"/>
</linearGradient>
<linearGradient id="paint6_linear_1_5490" x1="6765.42" y1="2810.76" x2="6765.42" y2="1073.42" gradientUnits="userSpaceOnUse">
<stop stop-color="#F7F8FB"/>
<stop offset="1" stop-color="#E2EAF3"/>
</linearGradient>
<linearGradient id="paint7_linear_1_5490" x1="3536.28" y1="99.5093" x2="9994.56" y2="99.5093" gradientUnits="userSpaceOnUse">
<stop offset="0.001" stop-color="#EDF3F7"/>
<stop offset="1" stop-color="#EDF2F7"/>
</linearGradient>
<linearGradient id="paint8_linear_1_5490" x1="8937.28" y1="2466.33" x2="5591.45" y2="-1084.59" gradientUnits="userSpaceOnUse">
<stop stop-color="#E3EAF1"/>
<stop offset="1" stop-color="#D9E2ED"/>
</linearGradient>
<linearGradient id="paint9_linear_1_5490" x1="1248.95" y1="505.537" x2="1248.95" y2="462.659" gradientUnits="userSpaceOnUse">
<stop stop-color="#E9F0FA"/>
<stop offset="0.4" stop-color="#E4EBF4"/>
<stop offset="0.911" stop-color="#D6DEE5"/>
<stop offset="1" stop-color="#D3DBE1"/>
</linearGradient>
<linearGradient id="paint10_linear_1_5490" x1="1309.7" y1="134.467" x2="1587.52" y2="134.467" gradientUnits="userSpaceOnUse">
<stop stop-color="#E9F4FA"/>
<stop offset="0.458" stop-color="#E5EFF4"/>
<stop offset="1" stop-color="#DCE2E6"/>
</linearGradient>
<radialGradient id="paint11_radial_1_5490" cx="0" cy="0" r="1" gradientUnits="userSpaceOnUse" gradientTransform="translate(1001.91 387.83) scale(283.869 340.46)">
<stop stop-color="#3A68A2" stop-opacity="0.7"/>
<stop offset="0.042" stop-color="#3A68A0" stop-opacity="0.679"/>
<stop offset="0.579" stop-color="#3C6891" stop-opacity="0.41"/>
<stop offset="1" stop-color="#3C688B" stop-opacity="0.2"/>
</radialGradient>
<linearGradient id="paint12_linear_1_5490" x1="1623.05" y1="1282.47" x2="2123.77" y2="842.112" gradientUnits="userSpaceOnUse">
<stop offset="0.002" stop-color="#FF7240"/>
<stop offset="1" stop-color="#FE4C49"/>
</linearGradient>
<linearGradient id="paint13_linear_1_5490" x1="2860.93" y1="49.982" x2="6547.73" y2="49.982" gradientUnits="userSpaceOnUse">
<stop stop-color="white"/>
</linearGradient>
<linearGradient id="paint14_linear_1_5490" x1="332.16" y1="52.817" x2="332.16" y2="47.1471" gradientUnits="userSpaceOnUse">
<stop stop-color="#DAE3EE"/>
<stop offset="1" stop-color="#D8E1EA"/>
</linearGradient>
<linearGradient id="paint15_linear_1_5490" x1="334.64" y1="52.817" x2="334.64" y2="47.1471" gradientUnits="userSpaceOnUse">
<stop stop-color="#DAE3EE"/>
<stop offset="1" stop-color="#D8E1EA"/>
</linearGradient>
<linearGradient id="paint16_linear_1_5490" x1="337.121" y1="52.817" x2="337.121" y2="47.1471" gradientUnits="userSpaceOnUse">
<stop stop-color="#DAE3EE"/>
<stop offset="1" stop-color="#D8E1EA"/>
</linearGradient>
<linearGradient id="paint17_linear_1_5490" x1="60.8815" y1="53.5888" x2="62.2989" y2="53.5888" gradientUnits="userSpaceOnUse">
<stop stop-color="white"/>
<stop offset="1" stop-color="#FBFDFD"/>
</linearGradient>
<linearGradient id="paint18_linear_1_5490" x1="64.0707" y1="53.5888" x2="65.4882" y2="53.5888" gradientUnits="userSpaceOnUse">
<stop stop-color="white"/>
<stop offset="1" stop-color="#FBFDFD"/>
</linearGradient>
<linearGradient id="paint19_linear_1_5490" x1="841.063" y1="212.568" x2="841.063" y2="177.728" gradientUnits="userSpaceOnUse">
<stop stop-color="#D4DCE7"/>
<stop offset="1" stop-color="#B6C4D5"/>
</linearGradient>
<linearGradient id="paint20_linear_1_5490" x1="1317.51" y1="401.764" x2="1317.51" y2="318.903" gradientUnits="userSpaceOnUse">
<stop stop-color="#FFCB5D"/>
<stop offset="1" stop-color="#FFA961"/>
</linearGradient>
<linearGradient id="paint21_linear_1_5490" x1="1721.02" y1="205.38" x2="3938.6" y2="205.38" gradientUnits="userSpaceOnUse">
<stop stop-color="#F7FFFF" stop-opacity="0.4"/>
<stop offset="0.17" stop-color="#DAF3FF" stop-opacity="0.502"/>
<stop offset="0.382" stop-color="#BDE8FF" stop-opacity="0.629"/>
<stop offset="0.593" stop-color="#A9E0FF" stop-opacity="0.756"/>
<stop offset="0.8" stop-color="#9CDBFF" stop-opacity="0.88"/>
<stop offset="1" stop-color="#98D9FF"/>
</linearGradient>
<linearGradient id="paint22_linear_1_5490" x1="2274.54" y1="2049.08" x2="2886.61" y2="1911.11" gradientUnits="userSpaceOnUse">
<stop stop-color="#98D9FF"/>
<stop offset="0.2" stop-color="#9CDBFF" stop-opacity="0.88"/>
<stop offset="0.408" stop-color="#A9E0FF" stop-opacity="0.756"/>
<stop offset="0.618" stop-color="#BDE8FF" stop-opacity="0.629"/>
<stop offset="0.83" stop-color="#DAF3FF" stop-opacity="0.502"/>
<stop offset="1" stop-color="#F7FFFF" stop-opacity="0.4"/>
</linearGradient>
<linearGradient id="paint23_linear_1_5490" x1="922.2" y1="1067.82" x2="1543.73" y2="1067.82" gradientUnits="userSpaceOnUse">
<stop stop-color="#98D9FF"/>
<stop offset="0.2" stop-color="#9CDBFF" stop-opacity="0.88"/>
<stop offset="0.408" stop-color="#A9E0FF" stop-opacity="0.756"/>
<stop offset="0.618" stop-color="#BDE8FF" stop-opacity="0.629"/>
<stop offset="0.83" stop-color="#DAF3FF" stop-opacity="0.502"/>
<stop offset="1" stop-color="#F7FFFF" stop-opacity="0.4"/>
</linearGradient>
<linearGradient id="paint24_linear_1_5490" x1="299.641" y1="958.769" x2="258.462" y2="958.769" gradientUnits="userSpaceOnUse">
<stop stop-color="#919FB9" stop-opacity="0.1"/>
<stop offset="0.191" stop-color="#95A3BC" stop-opacity="0.081"/>
<stop offset="0.392" stop-color="#A2AEC4" stop-opacity="0.061"/>
<stop offset="0.597" stop-color="#B7C0D1" stop-opacity="0.04"/>
<stop offset="0.803" stop-color="#D4DAE4" stop-opacity="0.02"/>
<stop offset="1" stop-color="#F7F9FB" stop-opacity="0"/>
</linearGradient>
<clipPath id="clip0_1_5490">
<rect width="100" height="58.47" fill="white" transform="translate(0.5 8.53)"/>
</clipPath>
<clipPath id="clip1_1_5490">
<rect width="100" height="58.47" fill="white" transform="translate(0.5 8.53)"/>
</clipPath>
</defs>
</svg>
