<svg width="101" height="76" viewBox="0 0 101 76" fill="none" xmlns="http://www.w3.org/2000/svg">
<g clip-path="url(#clip0_1_5535)">
<g clip-path="url(#clip1_1_5535)">
<path opacity="0.3" d="M17.3571 51.2622C-2.46428 51.2622 12.7857 66.2622 31.1429 66.2622C64.7143 66.2622 60.4643 70.2265 76.8571 70.2265C98.1786 70.2265 98.0714 42.405 78.2857 42.405C41.0357 42.405 46.1071 51.2622 17.3571 51.2622Z" fill="url(#paint0_linear_1_5535)"/>
<path d="M20.5714 36.0122C20.1786 36.0122 19.8929 35.6907 19.8929 35.3336V13.905C19.8929 13.5122 20.2143 13.2264 20.5714 13.2264H49.25C49.6429 13.2264 49.9286 13.5479 49.9286 13.905V35.2979C49.9286 35.6907 49.6071 35.9764 49.25 35.9764C49.25 36.0122 20.5714 36.0122 20.5714 36.0122Z" fill="url(#paint1_linear_1_5535)"/>
<path d="M49.25 13.3693C49.3909 13.3729 49.5251 13.4305 49.6248 13.5302C49.7245 13.6299 49.7821 13.7641 49.7857 13.905V35.2978C49.7821 35.4388 49.7245 35.573 49.6248 35.6727C49.5251 35.7723 49.3909 35.8299 49.25 35.8336H20.5714C20.4305 35.8299 20.2963 35.7723 20.1966 35.6727C20.0969 35.573 20.0393 35.4388 20.0357 35.2978V13.905C20.0393 13.7641 20.0969 13.6299 20.1966 13.5302C20.2963 13.4305 20.4305 13.3729 20.5714 13.3693H49.25ZM49.25 13.0479H20.5714C20.1072 13.0479 19.7143 13.4407 19.7143 13.905V35.2978C19.7143 35.7621 20.1072 36.155 20.5714 36.155H49.25C49.7143 36.155 50.1071 35.7621 50.1071 35.2978V13.905C50.1071 13.4407 49.7143 13.0479 49.25 13.0479Z" fill="#E8EEF4"/>
<path d="M49.7857 13.405H20.1429V14.7622H49.7857V13.405Z" fill="#EDF2F7"/>
<path d="M36.8214 23.7265H32.9643C32.7143 23.7265 32.5357 23.5479 32.5357 23.2979V18.8336C32.5357 18.5836 32.7143 18.405 32.9643 18.405H36.8214C37.0714 18.405 37.25 18.5836 37.25 18.8336V23.3336C37.25 23.5479 37.0714 23.7265 36.8214 23.7265Z" fill="url(#paint2_linear_1_5535)"/>
<g opacity="0.5">
<path opacity="0.111" fill-rule="evenodd" clip-rule="evenodd" d="M33.6071 22.2621L34.4643 21.1193L34.7857 21.5121L35.4286 20.7621L36.6786 22.2621H33.6071Z" fill="#DDE6EE"/>
<path opacity="0.222" fill-rule="evenodd" clip-rule="evenodd" d="M33.6432 22.2621L34.4646 21.155L34.7861 21.5479L35.4289 20.7621L36.6432 22.2621H33.6432Z" fill="#DDE6EE"/>
<path opacity="0.333" fill-rule="evenodd" clip-rule="evenodd" d="M33.6786 22.2264L34.4643 21.155L34.7857 21.5836L35.4286 20.7979L36.6072 22.2264H33.6786Z" fill="#DDE6EE"/>
<path opacity="0.444" fill-rule="evenodd" clip-rule="evenodd" d="M33.7147 22.2264L34.4647 21.1907L34.7861 21.5836L35.4289 20.8336L36.5718 22.2264H33.7147Z" fill="#DDE6EE"/>
<path opacity="0.556" fill-rule="evenodd" clip-rule="evenodd" d="M33.7504 22.1907L34.4647 21.2264L34.7861 21.6193L35.4289 20.8693L36.5004 22.1907H33.7504Z" fill="#DDE6EE"/>
<path opacity="0.667" fill-rule="evenodd" clip-rule="evenodd" d="M33.8218 22.155L34.4646 21.2622L34.7861 21.655L35.4289 20.905L36.4646 22.155H33.8218Z" fill="#DDE6EE"/>
<path opacity="0.778" fill-rule="evenodd" clip-rule="evenodd" d="M33.8571 22.155L34.4643 21.2979L34.7857 21.6907L35.4286 20.9407L36.4286 22.155H33.8571Z" fill="#DDE6EE"/>
<path opacity="0.889" fill-rule="evenodd" clip-rule="evenodd" d="M33.8932 22.1193L34.4646 21.3336L34.7861 21.7264L35.4289 20.9764L36.3932 22.1193H33.8932Z" fill="#DDE6EE"/>
<path opacity="0.5" fill-rule="evenodd" clip-rule="evenodd" d="M33.9289 22.1193L34.4646 21.3693L34.7861 21.7622L35.4289 20.9764L36.3575 22.1193H33.9289Z" fill="#DDE6EE"/>
</g>
<g opacity="0.5">
<path opacity="0.222" fill-rule="evenodd" clip-rule="evenodd" d="M34.4643 21.1193C34.389 21.1203 34.3143 21.1061 34.2445 21.0778C34.1747 21.0494 34.1114 21.0073 34.0581 20.9541C34.0048 20.9008 33.9628 20.8374 33.9344 20.7677C33.906 20.6979 33.8919 20.6232 33.8929 20.5479C33.8929 20.3963 33.9531 20.251 34.0602 20.1438C34.1674 20.0366 34.3127 19.9764 34.4643 19.9764C34.6158 19.9764 34.7612 20.0366 34.8684 20.1438C34.9755 20.251 35.0357 20.3963 35.0357 20.5479C35.0714 20.8336 34.8214 21.1193 34.4643 21.1193Z" fill="#DDE6EE"/>
<path opacity="0.309" fill-rule="evenodd" clip-rule="evenodd" d="M34.4644 19.9407C34.5397 19.9398 34.6144 19.9539 34.6842 19.9823C34.7539 20.0106 34.8173 20.0527 34.8706 20.1059C34.9238 20.1592 34.9659 20.2226 34.9943 20.2923C35.0226 20.3621 35.0368 20.4368 35.0358 20.5121C35.0358 20.6637 34.9756 20.809 34.8684 20.9162C34.7613 21.0234 34.6159 21.0836 34.4644 21.0836C34.3128 21.0836 34.1675 21.0234 34.0603 20.9162C33.9531 20.809 33.8929 20.6637 33.8929 20.5121C33.8929 20.1907 34.1787 19.9407 34.4644 19.9407Z" fill="#DDE6EE"/>
<path opacity="0.395" fill-rule="evenodd" clip-rule="evenodd" d="M34.4643 19.9764C34.6052 19.9801 34.7394 20.0377 34.8391 20.1374C34.9388 20.237 34.9964 20.3712 35 20.5122C34.9964 20.6531 34.9388 20.7873 34.8391 20.887C34.7394 20.9867 34.6052 21.0443 34.4643 21.0479C34.3234 21.0443 34.1892 20.9867 34.0895 20.887C33.9898 20.7873 33.9322 20.6531 33.9286 20.5122C33.9322 20.3712 33.9898 20.237 34.0895 20.1374C34.1892 20.0377 34.3234 19.9801 34.4643 19.9764Z" fill="#DDE6EE"/>
<path opacity="0.482" d="M34.4643 20.0121C34.75 20.0121 34.9643 20.2264 34.9643 20.5121C34.9643 20.7979 34.75 21.0121 34.4643 21.0121C34.1786 21.0121 33.9643 20.7979 33.9643 20.5121C33.9643 20.2264 34.2143 20.0121 34.4643 20.0121Z" fill="#DDE6EE"/>
<path opacity="0.568" d="M34.4643 20.0121C34.75 20.0121 34.9643 20.2264 34.9643 20.5121C34.9643 20.7979 34.75 21.0121 34.4643 21.0121C34.1786 21.0121 33.9643 20.7979 33.9643 20.5121C33.9643 20.2264 34.2143 20.0121 34.4643 20.0121Z" fill="#DDE6EE"/>
<path opacity="0.654" fill-rule="evenodd" clip-rule="evenodd" d="M34.4643 20.0479C34.7143 20.0479 34.9286 20.2621 34.9286 20.5121C34.9286 20.7621 34.7143 20.9764 34.4643 20.9764C34.2143 20.9764 34 20.7621 34 20.5121C34 20.2621 34.2143 20.0479 34.4643 20.0479Z" fill="#DDE6EE"/>
<path opacity="0.741" fill-rule="evenodd" clip-rule="evenodd" d="M34.4643 20.0836C34.7143 20.0836 34.8929 20.2978 34.8929 20.5121C34.8929 20.7264 34.6786 20.9407 34.4643 20.9407C34.25 20.9407 34.0357 20.7264 34.0357 20.5121C34.0357 20.2978 34.25 20.0836 34.4643 20.0836Z" fill="#DDE6EE"/>
<path opacity="0.827" fill-rule="evenodd" clip-rule="evenodd" d="M34.4643 20.0836C34.7143 20.0836 34.8929 20.2621 34.8929 20.5121C34.8929 20.7621 34.7143 20.9407 34.4643 20.9407C34.2143 20.9407 34.0714 20.7621 34.0714 20.5121C34.0714 20.2978 34.25 20.0836 34.4643 20.0836Z" fill="#DDE6EE"/>
<path opacity="0.914" fill-rule="evenodd" clip-rule="evenodd" d="M34.4643 20.1193C34.5682 20.1202 34.6676 20.1619 34.7411 20.2354C34.8145 20.3088 34.8562 20.4082 34.8572 20.5121C34.8562 20.616 34.8145 20.7154 34.7411 20.7889C34.6676 20.8624 34.5682 20.904 34.4643 20.905C34.3604 20.904 34.261 20.8624 34.1875 20.7889C34.1141 20.7154 34.0724 20.616 34.0714 20.5121C34.0724 20.4082 34.1141 20.3088 34.1875 20.2354C34.261 20.1619 34.3604 20.1202 34.4643 20.1193Z" fill="#DDE6EE"/>
<path opacity="0.5" d="M34.4643 20.8693C34.559 20.8693 34.6499 20.8317 34.7168 20.7647C34.7838 20.6977 34.8214 20.6069 34.8214 20.5122C34.8214 20.4175 34.7838 20.3266 34.7168 20.2596C34.6499 20.1927 34.559 20.155 34.4643 20.155C34.3696 20.155 34.2787 20.1927 34.2118 20.2596C34.1448 20.3266 34.1071 20.4175 34.1071 20.5122C34.1071 20.6069 34.1448 20.6977 34.2118 20.7647C34.2787 20.8317 34.3696 20.8693 34.4643 20.8693Z" fill="#DDE6EE"/>
</g>
<path fill-rule="evenodd" clip-rule="evenodd" d="M33.8214 22.0121L34.3572 21.2621L34.6786 21.655L35.3214 20.8693L36.25 22.0121H33.8214Z" fill="white"/>
<path d="M34.3571 20.7621C34.4519 20.7621 34.5427 20.7245 34.6097 20.6575C34.6767 20.5906 34.7143 20.4997 34.7143 20.405C34.7143 20.3103 34.6767 20.2194 34.6097 20.1525C34.5427 20.0855 34.4519 20.0479 34.3571 20.0479C34.2624 20.0479 34.1716 20.0855 34.1046 20.1525C34.0376 20.2194 34 20.3103 34 20.405C34 20.4997 34.0376 20.5906 34.1046 20.6575C34.1716 20.7245 34.2624 20.7621 34.3571 20.7621Z" fill="white"/>
<path d="M27.4286 18.405H24.4286C24.1786 18.405 24 18.5836 24 18.8336V23.3336C24 23.5836 24.1786 23.7622 24.4286 23.7622H28.2857C28.5357 23.7622 28.7143 23.5836 28.7143 23.3336V19.6907L27.4286 18.405Z" fill="url(#paint3_linear_1_5535)"/>
<path d="M27.6425 19.6907H28.7139L27.4282 18.405V19.4765C27.4323 19.5319 27.4562 19.5841 27.4956 19.6234C27.5349 19.6627 27.587 19.6866 27.6425 19.6907Z" fill="url(#paint4_linear_1_5535)"/>
<g opacity="0.5">
<path opacity="0.111" d="M24.8929 21.5836V21.0836L26.2143 20.5479V21.2621L25.9643 21.3693L26.2143 21.4764V22.1907L24.8929 21.5836Z" fill="#DDE6EE"/>
<path opacity="0.222" d="M24.9286 21.5479V21.0836L26.2143 20.5479V21.1907L25.9286 21.2979L26.2143 21.405V22.0479L24.9286 21.5479Z" fill="#DDE6EE"/>
<path opacity="0.333" d="M24.9286 21.5479V21.1193L26.1786 20.6193V21.2265L25.8571 21.3336L26.1786 21.4408V22.0479L24.9286 21.5479Z" fill="#DDE6EE"/>
<path opacity="0.444" d="M24.9643 21.5122V21.1193L26.1429 20.6193V21.1908L25.7857 21.3336L26.1429 21.4765V22.0479L24.9643 21.5122Z" fill="#DDE6EE"/>
<path opacity="0.556" d="M25.0003 21.5122V21.1193L26.1432 20.655V21.155L25.7503 21.2979L26.1432 21.4407V21.9407L25.0003 21.5122Z" fill="#DDE6EE"/>
<path opacity="0.667" d="M25.0003 21.4765V21.1193L26.1075 20.655V21.1193L25.6432 21.2979L26.1075 21.4765V21.9407L25.0003 21.4765Z" fill="#DDE6EE"/>
<path opacity="0.778" d="M25.0357 21.4764V21.155L26.0714 20.7264V21.1193L25.5714 21.2979L26.0714 21.4764V21.8693L25.0357 21.4764Z" fill="#DDE6EE"/>
<path opacity="0.889" d="M25.0714 21.4764V21.1907L26.0714 20.7621V21.1193L25.5357 21.3336L26.0714 21.5479V21.905L25.0714 21.4764Z" fill="#DDE6EE"/>
<path opacity="0.5" d="M26.0357 21.8336L25.0714 21.4407V21.1907L26.0357 20.7979V21.0836L25.4643 21.2979L26.0357 21.5121V21.8336Z" fill="#DDE6EE"/>
<path opacity="0.111" d="M26.3925 20.5121H26.9639L26.5711 22.155H25.9996L26.3925 20.5121Z" fill="#DDE6EE"/>
<path opacity="0.222" d="M26.3928 20.5121H26.9286L26.5357 22.1193H26.0357L26.3928 20.5121Z" fill="#DDE6EE"/>
<path opacity="0.333" d="M26.4286 20.5479H26.8928L26.5 22.0836H26.0357L26.4286 20.5479Z" fill="#DDE6EE"/>
<path opacity="0.444" d="M26.4286 20.5836H26.8571L26.5 22.0836H26.0714L26.4286 20.5836Z" fill="#DDE6EE"/>
<path opacity="0.556" d="M26.4643 20.5836H26.8214L26.4643 22.0478H26.1071L26.4643 20.5836Z" fill="#DDE6EE"/>
<path opacity="0.667" d="M26.4643 20.6193H26.7857L26.4286 22.0122H26.1071L26.4643 20.6193Z" fill="#DDE6EE"/>
<path opacity="0.778" d="M26.4997 20.655H26.7854L26.4639 22.0122H26.1782L26.4997 20.655Z" fill="#DDE6EE"/>
<path opacity="0.889" d="M26.4997 20.655H26.7139L26.3925 21.9765H26.1782L26.4997 20.655Z" fill="#DDE6EE"/>
<path opacity="0.5" d="M26.5357 20.6907H26.7143L26.3929 21.9407H26.2143L26.5357 20.6907Z" fill="#DDE6EE"/>
<path opacity="0.111" d="M26.7139 21.405L26.9639 21.2979L26.7139 21.1907V20.4764L28.0354 21.0122V21.5122L26.7139 22.0479V21.405Z" fill="#DDE6EE"/>
<path opacity="0.222" d="M26.7139 21.4407L26.9996 21.3336L26.7139 21.2264V20.5836L27.9996 21.1193V21.5836L26.7139 22.1193V21.4407Z" fill="#DDE6EE"/>
<path opacity="0.333" d="M26.75 21.4408L27.0714 21.3336L26.75 21.2265V20.6193L28 21.1193V21.5479L26.75 22.0479V21.4408Z" fill="#DDE6EE"/>
<path opacity="0.444" d="M26.7857 21.4765L27.1428 21.3336L26.7857 21.1908V20.6193L27.9643 21.1193V21.5122L26.7857 22.0122V21.4765Z" fill="#DDE6EE"/>
<path opacity="0.556" d="M26.7857 21.4764L27.1786 21.3336L26.7857 21.1907V20.6907L27.9286 21.155V21.5479L26.7857 22.0122V21.4764Z" fill="#DDE6EE"/>
<path opacity="0.667" d="M26.8214 21.5122L27.2857 21.3336L26.8214 21.155V20.6907L27.9286 21.155V21.5122L26.8214 21.9764V21.5122Z" fill="#DDE6EE"/>
<path opacity="0.778" d="M26.8571 21.5122L27.3571 21.3336L26.8571 21.1193V20.7264L27.8929 21.155V21.4764L26.8571 21.905V21.5122Z" fill="#DDE6EE"/>
<path opacity="0.889" d="M26.8571 21.5121L27.3929 21.2979L26.8571 21.1193V20.7621L27.8571 21.1907V21.4764L26.8571 21.905V21.5121Z" fill="#DDE6EE"/>
<path opacity="0.5" d="M26.8925 21.5478L27.4639 21.3336L26.8925 21.1193V20.8336L27.8568 21.2264V21.4764L26.8925 21.8336V21.5478Z" fill="#DDE6EE"/>
</g>
<path d="M25.9286 21.7265L24.9643 21.3336V21.0836L25.9286 20.6907V20.9765L25.3572 21.1907L25.9286 21.405V21.7265ZM26.4286 20.5836H26.6072L26.2857 21.8336H26.1072L26.4286 20.5836ZM26.7857 21.4407L27.3572 21.2265L26.7857 21.0122V20.7265L27.75 21.1193V21.3693L26.7857 21.7622V21.4407ZM44.25 18.405H41.4286C41.1786 18.405 41 18.5836 41 18.8336V23.3336C41 23.5836 41.1786 23.7622 41.4286 23.7622H45.2857C45.5357 23.7622 45.7143 23.5836 45.7143 23.3336V19.8693C45.7143 19.7622 45.6786 19.655 45.5714 19.5836L44.5357 18.5479C44.5 18.4407 44.3929 18.405 44.25 18.405Z" fill="white"/>
<path d="M44.25 18.7265C44.2857 18.7265 44.3214 18.7265 44.3214 18.7622L45.3571 19.7979C45.3929 19.8336 45.3929 19.8336 45.3929 19.8693V23.3336C45.3929 23.405 45.3571 23.4407 45.2857 23.4407H41.4286C41.3571 23.4407 41.3214 23.405 41.3214 23.3336V18.8336C41.3214 18.7622 41.3571 18.7265 41.4286 18.7265H44.25ZM44.25 18.405H41.4286C41.1786 18.405 41 18.5836 41 18.8336V23.3336C41 23.5836 41.1786 23.7622 41.4286 23.7622H45.2857C45.5357 23.7622 45.7143 23.5836 45.7143 23.3336V19.8693C45.7143 19.7622 45.6786 19.655 45.5714 19.5836L44.5357 18.5479C44.5 18.4407 44.3929 18.405 44.25 18.405Z" fill="url(#paint5_linear_1_5535)"/>
<path opacity="0.7" d="M50.0714 18.405V36.1193H27.4643V18.405H50.0714Z" fill="url(#paint6_linear_1_5535)"/>
<path d="M27.4643 27.1907H24.5C24.25 27.1907 24.0714 27.3693 24.0714 27.6193V32.0836C24.0714 32.3336 24.25 32.5122 24.5 32.5122H28.3214C28.5714 32.5122 28.75 32.3336 28.75 32.0836V28.4407L27.4643 27.1907Z" fill="url(#paint7_linear_1_5535)"/>
<path d="M27.6786 28.4764H28.75L27.4643 27.1907V28.2622C27.4684 28.3176 27.4923 28.3698 27.5316 28.4091C27.571 28.4484 27.6231 28.4723 27.6786 28.4764Z" fill="url(#paint8_linear_1_5535)"/>
<g opacity="0.5">
<g opacity="0.5">
<path opacity="0.056" d="M26.5 29.1193L26.6786 29.155V30.1908H27.7143V30.3693C27.7143 31.0479 27.1429 31.6193 26.4643 31.6193C25.7857 31.6193 25.2143 31.0479 25.2143 30.3693C25.25 29.655 25.8214 29.1193 26.5 29.1193Z" fill="#DDE6EE"/>
<path opacity="0.111" d="M26.5 29.1193L26.6786 29.155V30.1908H27.7143L27.75 30.3693C27.75 31.0479 27.1786 31.5836 26.5 31.5836C25.8215 31.5836 25.2857 31.0122 25.2857 30.3336C25.2894 30.0127 25.4186 29.706 25.6455 29.4791C25.8724 29.2522 26.1791 29.123 26.5 29.1193Z" fill="#DDE6EE"/>
<path opacity="0.167" d="M26.5 29.155L26.6429 29.2265V30.2265H27.6429L27.7143 30.3693C27.7143 31.0479 27.1786 31.5836 26.5 31.5479C25.8215 31.5479 25.2857 31.0122 25.3215 30.3336C25.2857 29.6907 25.8572 29.155 26.5 29.155Z" fill="#DDE6EE"/>
<path opacity="0.222" d="M26.5 29.1907L26.6072 29.2622V30.2622H27.6072L27.6786 30.3693C27.6758 30.681 27.5507 30.9792 27.3303 31.1996C27.1099 31.42 26.8117 31.5451 26.5 31.5479C26.1883 31.5451 25.8901 31.42 25.6697 31.1996C25.4493 30.9792 25.3242 30.681 25.3214 30.3693C25.3214 29.6907 25.8572 29.1907 26.5 29.1907Z" fill="#DDE6EE"/>
<path opacity="0.278" d="M26.5004 29.1907L26.6075 29.2979V30.2622H27.5718L27.6789 30.3693C27.6789 31.0122 27.1432 31.5122 26.5004 31.5122C25.8575 31.5122 25.3575 30.9764 25.3575 30.3336C25.3575 29.7264 25.8575 29.1907 26.5004 29.1907Z" fill="#DDE6EE"/>
<path opacity="0.333" d="M26.5004 29.2264L26.5718 29.3336V30.2979H27.5361L27.6432 30.3693C27.6432 31.0122 27.1432 31.5122 26.5004 31.5122C25.8575 31.5122 25.3575 31.0122 25.3575 30.3693C25.3575 29.7264 25.8932 29.2264 26.5004 29.2264Z" fill="#DDE6EE"/>
<path opacity="0.389" d="M26.5 29.2622L26.5357 29.405V30.3336H27.4643L27.6072 30.3693C27.6053 30.6624 27.488 30.9429 27.2808 31.1501C27.0736 31.3573 26.7931 31.4746 26.5 31.4765C26.207 31.4746 25.9264 31.3573 25.7192 31.1501C25.512 30.9429 25.3948 30.6624 25.3929 30.3693C25.3905 30.2233 25.4175 30.0782 25.4722 29.9428C25.527 29.8074 25.6085 29.6844 25.7118 29.5811C25.8151 29.4778 25.9381 29.3963 26.0735 29.3415C26.2089 29.2867 26.354 29.2598 26.5 29.2622Z" fill="#DDE6EE"/>
<path opacity="0.444" d="M26.5 29.2622L26.5357 29.4051V30.3336H27.4643L27.6072 30.3694C27.6072 30.9765 27.1072 31.4408 26.5 31.4408C25.8929 31.4408 25.4286 30.9408 25.4286 30.3336C25.4295 30.0498 25.5427 29.7778 25.7434 29.5771C25.9442 29.3763 26.2161 29.2631 26.5 29.2622Z" fill="#DDE6EE"/>
<path opacity="0.5" d="M26.5 30.3693H27.5714C27.5642 30.6512 27.449 30.9196 27.2496 31.1189C27.0502 31.3183 26.7819 31.4335 26.5 31.4408C26.2181 31.4335 25.9498 31.3183 25.7504 31.1189C25.551 30.9196 25.4358 30.6512 25.4286 30.3693C25.4358 30.0875 25.551 29.8191 25.7504 29.6197C25.9498 29.4203 26.2181 29.3051 26.5 29.2979V30.3693Z" fill="#DDE6EE"/>
</g>
<g opacity="0.5">
<path opacity="0.056" d="M26.5354 28.905H26.7497C26.9282 28.905 27.0711 28.9407 27.2139 29.0122C27.3568 29.0836 27.4997 29.155 27.6068 29.2979C27.7139 29.405 27.8211 29.5479 27.8568 29.6907C27.926 29.8358 27.9626 29.9943 27.9639 30.155V30.3693H26.5354V28.905Z" fill="#FBFCFD"/>
<path opacity="0.111" d="M26.5711 28.905H26.7497C26.9104 28.9064 27.0689 28.943 27.2139 29.0122C27.3568 29.0836 27.4997 29.155 27.6068 29.2622C27.7139 29.3693 27.8211 29.5122 27.8568 29.655C27.9282 29.7979 27.9639 29.9407 27.9639 30.1193V30.2979H26.5354V29.5836L26.5711 28.905Z" fill="#F7F9FB"/>
<path opacity="0.167" d="M26.5711 28.9407H26.7497C26.8925 28.9407 27.0354 28.9764 27.1782 29.0479C27.3211 29.1193 27.4639 29.1907 27.5711 29.2979C27.6782 29.405 27.7497 29.5479 27.8211 29.6907C27.8925 29.8336 27.8925 29.9764 27.8925 30.1193V30.2979H26.5354V29.6193L26.5711 28.9407Z" fill="#F4F7F9"/>
<path opacity="0.222" d="M26.6072 28.9764H26.7857C26.9286 28.9764 27.0714 29.0122 27.1786 29.0836C27.3214 29.155 27.4286 29.2264 27.5357 29.3336C27.6429 29.4407 27.7143 29.5836 27.7857 29.7264C27.8214 29.8693 27.8572 29.9764 27.8572 30.1193V30.2979H26.5714V29.655L26.6072 28.9764Z" fill="#F0F4F7"/>
<path opacity="0.278" d="M26.6429 28.9764H26.8214C26.9643 28.9764 27.0714 29.0122 27.2143 29.0836C27.3571 29.155 27.4643 29.2264 27.5714 29.3336C27.6786 29.4407 27.75 29.5479 27.8214 29.6907C27.8571 29.7979 27.8929 29.9407 27.8929 30.0836V30.2622H26.6071V29.6193L26.6429 28.9764Z" fill="#ECF1F6"/>
<path opacity="0.333" d="M26.6429 29.0121H26.7857C26.9286 29.0121 27.0357 29.0479 27.1429 29.0836C27.2857 29.155 27.3929 29.2264 27.5 29.3336C27.6071 29.4407 27.6786 29.5479 27.75 29.6907C27.7857 29.7979 27.8214 29.905 27.8214 30.0479V30.1907H26.6071V29.5836L26.6429 29.0121Z" fill="#E8EEF4"/>
<path opacity="0.389" d="M26.6786 29.0479H26.8214C26.9286 29.0479 27.0357 29.0836 27.1429 29.1193C27.2753 29.1817 27.3961 29.2662 27.5 29.3693C27.6072 29.4765 27.6786 29.5836 27.75 29.7265C27.7857 29.8336 27.8214 29.9408 27.8214 30.0479V30.1908H26.6786V29.0479Z" fill="#E5ECF2"/>
<path opacity="0.444" d="M26.7143 29.0479H26.8572C26.9643 29.0479 27.0714 29.0836 27.1786 29.1193C27.311 29.1817 27.4318 29.2662 27.5357 29.3693C27.6429 29.4765 27.7143 29.5836 27.75 29.7265C27.7857 29.8336 27.8214 29.9408 27.8214 30.0479V30.1908H26.6786V29.6193L26.7143 29.0479Z" fill="#E1E9F0"/>
<path opacity="0.5" d="M26.7139 29.0836V30.155H27.7854C27.7854 30.0122 27.7496 29.8693 27.7139 29.7265C27.6782 29.5836 27.5711 29.4765 27.4996 29.3693C27.3925 29.2622 27.2854 29.1908 27.1782 29.155C26.9996 29.1193 26.8568 29.0836 26.7139 29.0836Z" fill="#DDE6EE"/>
</g>
</g>
<path d="M26.2857 29.0836C26.0019 29.0846 25.7299 29.1977 25.5291 29.3985C25.3284 29.5992 25.2152 29.8712 25.2143 30.155C25.2143 30.7622 25.6786 31.2265 26.2857 31.2265C26.8929 31.2265 27.3572 30.7622 27.3572 30.155H26.2857V29.0836ZM26.5 28.8693V29.9408H27.5714C27.5705 29.6569 27.4573 29.3849 27.2566 29.1842C27.0559 28.9834 26.7839 28.8703 26.5 28.8693Z" fill="white"/>
<path opacity="0.7" d="M86.2496 61.0122C86.2496 62.7265 71.5354 62.405 53.3568 62.405C35.1782 62.405 20.4639 62.7265 20.4639 61.0122C20.4639 59.2979 35.1782 57.905 53.3568 57.905C71.5354 57.905 86.2496 59.2979 86.2496 61.0122Z" fill="url(#paint9_radial_1_5535)"/>
<path d="M61.5357 56.9408C61.2427 56.9389 60.9621 56.8216 60.7549 56.6144C60.5477 56.4072 60.4304 56.1267 60.4286 55.8336V35.1908C60.4304 34.8977 60.5477 34.6172 60.7549 34.41C60.9621 34.2027 61.2427 34.0855 61.5357 34.0836H82.1786C82.4716 34.0855 82.7521 34.2027 82.9594 34.41C83.1666 34.6172 83.2838 34.8977 83.2857 35.1908V55.8336C83.2838 56.1267 83.1666 56.4072 82.9594 56.6144C82.7521 56.8216 82.4716 56.9389 82.1786 56.9408H61.5357Z" fill="url(#paint10_linear_1_5535)"/>
<path d="M82.1782 34.2622C82.7139 34.2622 83.1068 34.6907 83.1068 35.1907V55.8336C83.1068 56.3693 82.6782 56.7622 82.1782 56.7622H61.5354C60.9996 56.7622 60.6068 56.3336 60.6068 55.8336V35.1907C60.6068 34.655 61.0354 34.2622 61.5354 34.2622H82.1782ZM82.1782 33.9407H61.5354C60.8211 33.9407 60.2854 34.5122 60.2854 35.1907V55.8336C60.2854 56.5479 60.8568 57.0836 61.5354 57.0836H82.1782C82.8925 57.0836 83.4282 56.5122 83.4282 55.8336V35.1907C83.4639 34.5122 82.8925 33.9407 82.1782 33.9407Z" fill="#D9E3ED"/>
<path d="M83.4643 35.655H60.25V35.2264C60.25 34.5122 60.8214 33.9407 61.5357 33.9407H82.1429C82.8571 33.9407 83.4286 34.5122 83.4286 35.2264L83.4643 35.655Z" fill="#E8EEF4"/>
<path d="M75.8928 59.5479H32.0714C31.3571 59.5479 30.7857 58.9764 30.7857 58.2622V28.0122C30.7857 27.2979 31.3571 26.7264 32.0714 26.7264H75.8571C76.5714 26.7264 77.1428 27.2979 77.1428 28.0122V58.2622C77.1786 58.9764 76.5714 59.5479 75.8928 59.5479Z" fill="url(#paint11_linear_1_5535)"/>
<path d="M31.1068 57.9407V28.3336C31.1068 27.6193 31.6782 27.0479 32.3925 27.0479H75.5354C76.2496 27.0479 76.8211 27.6193 76.8211 28.3336V57.9407C76.8211 58.655 76.2496 59.2264 75.5354 59.2264H32.3925C31.6782 59.2264 31.1068 58.655 31.1068 57.9407Z" fill="url(#paint12_linear_1_5535)"/>
<path d="M75.7854 59.2264H32.1782C31.8943 59.2255 31.6224 59.1123 31.4216 58.9116C31.2209 58.7108 31.1077 58.4389 31.1068 58.155V31.5479H76.8211V58.1907C76.8568 58.7621 76.3568 59.2264 75.7854 59.2264Z" fill="url(#paint13_linear_1_5535)"/>
<path d="M74 57.905H34.1429C33.2857 57.905 32.5714 57.1907 32.5714 56.3336V33.7265C32.5714 32.8693 33.2857 32.155 34.1429 32.155H74C74.8572 32.155 75.5714 32.8693 75.5714 33.7265V56.3336C75.5714 57.1907 74.8572 57.905 74 57.905Z" fill="white"/>
<path d="M73.9996 32.1907H72.9282V32.5479H73.9996V32.1907ZM71.4639 32.1907H70.3925V32.5479H71.4639V32.1907ZM68.9639 32.1907H67.8925V32.5479H68.9639V32.1907ZM66.4282 32.1907H65.3568V32.5479H66.4282V32.1907ZM63.8925 32.1907H62.8211V32.5479H63.8925V32.1907ZM61.3925 32.1907H60.3211V32.5479H61.3925V32.1907ZM58.8568 32.1907H57.7854V32.5479H58.8568V32.1907ZM56.3211 32.1907H55.2496V32.5479H56.3211V32.1907ZM53.8211 32.1907H52.7496V32.5479H53.8211V32.1907ZM51.2854 32.1907H50.2139V32.5479H51.2854V32.1907ZM48.7496 32.1907H47.6782V32.5479H48.7496V32.1907ZM46.2496 32.1907H45.1782V32.5479H46.2496V32.1907ZM43.7139 32.1907H42.6425V32.5479H43.7139V32.1907ZM41.1782 32.1907H40.1068V32.5479H41.1782V32.1907ZM38.6782 32.1907H37.6068V32.5479H38.6782V32.1907ZM36.1425 32.1907H35.0711V32.5479H36.1425V32.1907ZM33.6425 32.2622C33.3925 32.3336 33.2139 32.4764 33.0354 32.655C32.9996 32.6907 32.9996 32.7264 32.9639 32.7622L33.2854 32.9407C33.4282 32.6907 33.6425 32.5122 33.9282 32.4407L33.6425 32.2622ZM32.9639 34.3336H32.6068V35.405H32.9639V34.3336ZM32.9639 36.8693H32.6068V37.9407H32.9639V36.8693ZM32.9639 39.405H32.6068V40.4764H32.9639V39.405ZM32.9639 41.905H32.6068V42.9764H32.9639V41.905ZM32.9639 44.4407H32.6068V45.5122H32.9639V44.4407ZM32.9639 46.9764H32.6068V48.0479H32.9639V46.9764ZM32.9639 49.4764H32.6068V50.5479H32.9639V49.4764ZM32.9639 52.0122H32.6068V53.0836H32.9639V52.0122ZM32.9639 54.5479H32.6068V55.6193H32.9639V54.5479ZM33.0711 56.8693L32.7496 57.0122C32.7854 57.0479 32.7854 57.0836 32.8211 57.155C32.9639 57.3336 33.1782 57.5122 33.3925 57.5836L33.5354 57.2622C33.3925 57.3336 33.2139 57.1193 33.0711 56.8693ZM36.0354 57.5479H34.9639V57.905H36.0354V57.5479ZM38.5354 57.5479H37.4639V57.905H38.5354V57.5479ZM41.0711 57.5479H39.9996V57.905H41.0711V57.5479ZM43.6068 57.5479H42.5354V57.905H43.6068V57.5479ZM46.1068 57.5479H45.0354V57.905H46.1068V57.5479ZM48.6425 57.5479H47.5711V57.905H48.6425V57.5479ZM51.1782 57.5479H50.1068V57.905H51.1782V57.5479ZM53.6782 57.5479H52.6068V57.905H53.6782V57.5479ZM56.2139 57.5479H55.1425V57.905H56.2139V57.5479ZM58.7496 57.5479H57.6782V57.905H58.7496V57.5479ZM61.2496 57.5479H60.1782V57.905H61.2496V57.5479ZM63.7854 57.5479H62.7139V57.905H63.7854V57.5479ZM66.3211 57.5479H65.2496V57.905H66.3211V57.5479ZM68.8211 57.5479H67.7496V57.905H68.8211V57.5479ZM71.3568 57.5479H70.2854V57.905H71.3568V57.5479ZM73.8925 57.5479H72.8211V57.905H73.8925V57.5479ZM75.1782 56.3693C75.1782 56.655 75.0711 56.905 74.8925 57.1193L75.1782 57.3693C75.3925 57.155 75.4996 56.8693 75.5354 56.5479V56.5122L75.1782 56.3693ZM75.5711 53.8693H75.2139V54.9407H75.5711V53.8693ZM75.5711 51.3336H75.2139V52.405H75.5711V51.3336ZM75.5711 48.7979H75.2139V49.8693H75.5711V48.7979ZM75.5711 46.2979H75.2139V47.3693H75.5711V46.2979ZM75.5711 43.7622H75.2139V44.8336H75.5711V43.7622ZM75.5711 41.2264H75.2139V42.2979H75.5711V41.2264ZM75.5711 38.7264H75.2139V39.7979H75.5711V38.7264ZM75.5711 36.1907H75.2139V37.2622H75.5711V36.1907ZM75.5354 33.655H75.1782V34.7264H75.5354V33.7264C75.5711 33.6907 75.5354 33.6907 75.5354 33.655ZM73.9996 32.1907V32.5479C74.2496 32.5479 74.4639 32.6193 74.6782 32.7622L74.8925 32.4764L74.8568 32.4407H74.7854L73.9996 32.1907Z" fill="url(#paint14_linear_1_5535)"/>
<path d="M65.25 29.9407H33.6786C33.5081 29.9407 33.3446 29.873 33.224 29.7525C33.1034 29.6319 33.0357 29.4684 33.0357 29.2979C33.0357 29.1274 33.1034 28.9639 33.224 28.8433C33.3446 28.7228 33.5081 28.655 33.6786 28.655H65.25C65.4205 28.655 65.584 28.7228 65.7046 28.8433C65.8251 28.9639 65.8929 29.1274 65.8929 29.2979C65.8929 29.4684 65.8251 29.6319 65.7046 29.7525C65.584 29.873 65.4205 29.9407 65.25 29.9407Z" fill="url(#paint15_linear_1_5535)"/>
<path d="M68.9639 29.9407C69.1818 29.9407 69.3907 29.8542 69.5448 29.7001C69.6988 29.5461 69.7854 29.3371 69.7854 29.1193C69.7854 28.9014 69.6988 28.6925 69.5448 28.5384C69.3907 28.3844 69.1818 28.2979 68.9639 28.2979C68.7461 28.2979 68.5371 28.3844 68.3831 28.5384C68.229 28.6925 68.1425 28.9014 68.1425 29.1193C68.1425 29.3371 68.229 29.5461 68.3831 29.7001C68.5371 29.8542 68.7461 29.9407 68.9639 29.9407Z" fill="url(#paint16_linear_1_5535)"/>
<path d="M71.8571 29.9407C72.075 29.9407 72.2839 29.8542 72.438 29.7001C72.592 29.5461 72.6786 29.3371 72.6786 29.1193C72.6786 28.9014 72.592 28.6925 72.438 28.5384C72.2839 28.3844 72.075 28.2979 71.8571 28.2979C71.6393 28.2979 71.4303 28.3844 71.2763 28.5384C71.1222 28.6925 71.0357 28.9014 71.0357 29.1193C71.0357 29.3371 71.1222 29.5461 71.2763 29.7001C71.4303 29.8542 71.6393 29.9407 71.8571 29.9407Z" fill="url(#paint17_linear_1_5535)"/>
<path d="M74.6782 29.9407C74.8961 29.9407 75.105 29.8542 75.259 29.7001C75.4131 29.5461 75.4996 29.3371 75.4996 29.1193C75.4996 28.9014 75.4131 28.6925 75.259 28.5384C75.105 28.3844 74.8961 28.2979 74.6782 28.2979C74.4604 28.2979 74.2514 28.3844 74.0974 28.5384C73.9433 28.6925 73.8568 28.9014 73.8568 29.1193C73.8568 29.3371 73.9433 29.5461 74.0974 29.7001C74.2514 29.8542 74.4604 29.9407 74.6782 29.9407Z" fill="url(#paint18_linear_1_5535)"/>
<path opacity="0.7" d="M61.4643 55.1193H50.7143C50.4026 55.1165 50.1044 54.9915 49.884 54.771C49.6636 54.5506 49.5385 54.2525 49.5357 53.9408V39.5836H59.6786L62.6786 42.7265V53.9408C62.6429 54.5836 62.1071 55.1193 61.4643 55.1193Z" fill="url(#paint19_radial_1_5535)"/>
<path d="M57.5357 38.9407H49.1786C48.8669 38.9435 48.5687 39.0686 48.3483 39.289C48.1279 39.5094 48.0028 39.8076 48 40.1193V52.6907C48.0028 53.0024 48.1279 53.3006 48.3483 53.521C48.5687 53.7414 48.8669 53.8665 49.1786 53.8693H59.9286C60.2403 53.8665 60.5384 53.7414 60.7589 53.521C60.9793 53.3006 61.1043 53.0024 61.1071 52.6907V42.5479L57.5357 38.9407Z" fill="url(#paint20_linear_1_5535)"/>
<path d="M58.1429 42.5479H61.1429L57.5714 38.9764V41.9764C57.5357 42.2622 57.8214 42.5479 58.1429 42.5479Z" fill="url(#paint21_linear_1_5535)"/>
<path d="M49.0714 30.7979L56.2143 30.7622L52.6429 35.155L49.0714 30.7979ZM51.25 29.7979C51.25 30.1193 51.2143 30.4764 51.1786 30.7979H54.2143C54.2143 27.1907 51.4286 24.2622 47.9286 23.9407C49.9286 25.155 51.25 27.2979 51.25 29.7979Z" fill="url(#paint22_linear_1_5535)"/>
<path d="M46.6429 38.2979L44.2857 36.2979L44.9286 35.655L46.9286 38.0122L46.6429 38.2979ZM46.0714 39.3336L43.0714 38.5836L42.9286 39.4765L46.0357 39.6908L46.0714 39.3336ZM48.3214 37.4408L48.1071 34.3336L47.2143 34.4765L47.9643 37.4765L48.3214 37.4408Z" fill="url(#paint23_linear_1_5535)"/>
<path d="M49.7496 46.3336H50.7139C51.4996 46.3336 52.0711 46.8693 52.0711 47.6193C52.0711 48.3693 51.5354 48.905 50.7139 48.905H49.7496V46.3336ZM50.7139 48.5122C51.2854 48.5122 51.6068 48.1193 51.6068 47.6193C51.6068 47.1193 51.2854 46.7265 50.7139 46.7265H50.2139V48.5122H50.7139ZM52.3568 47.9765C52.3568 47.4408 52.7139 47.0122 53.3211 47.0122C53.9282 47.0122 54.2854 47.4408 54.2854 47.9765C54.2854 48.5122 53.9282 48.9408 53.3211 48.9408C52.7139 48.9765 52.3568 48.5122 52.3568 47.9765ZM53.8568 47.9765C53.8568 47.655 53.6782 47.3693 53.3211 47.3693C52.9639 47.3693 52.7854 47.655 52.7854 47.9765C52.7854 48.2979 52.9639 48.5836 53.3211 48.5836C53.6425 48.6193 53.8568 48.3336 53.8568 47.9765ZM55.9286 47.7622C55.9286 47.4765 55.7857 47.3693 55.5714 47.3693C55.3571 47.3693 55.1786 47.4765 55.1071 47.6193V48.905H54.7143V47.0479H55.1071V47.2979C55.2143 47.155 55.4643 47.0122 55.75 47.0122C56.1429 47.0122 56.3571 47.2265 56.3571 47.6193V48.9408H55.9643L55.9286 47.7622ZM57.7139 47.0122C58.2854 47.0122 58.6425 47.4408 58.6425 48.0122V48.1193H57.2139C57.2496 48.405 57.4639 48.6193 57.8211 48.6193C57.9996 48.6193 58.2139 48.5479 58.3568 48.405L58.5354 48.655C58.3568 48.8336 58.0711 48.9408 57.7854 48.9408C57.2139 48.9408 56.8211 48.5479 56.8211 47.9765C56.7497 47.4408 57.1425 47.0122 57.7139 47.0122ZM57.1782 47.8336H58.2139C58.2139 47.6193 58.0711 47.3336 57.6782 47.3336C57.3568 47.3336 57.2139 47.6193 57.1782 47.8336ZM59.25 48.4408C59.3929 48.4408 59.5357 48.5479 59.5357 48.7265C59.5357 48.8693 59.4286 48.9765 59.25 48.9765C59.2169 48.9775 59.184 48.9717 59.1532 48.9595C59.1224 48.9472 59.0944 48.9289 59.071 48.9055C59.0476 48.882 59.0292 48.8541 59.017 48.8233C59.0048 48.7925 58.999 48.7596 59 48.7265C58.9643 48.5479 59.1071 48.4408 59.25 48.4408ZM59 46.3336H59.5L59.4286 48.1193H59.0714L59 46.3336Z" fill="white"/>
<path opacity="0.7" d="M80.4639 33.9407H77.0711V57.1193H80.4639V33.9407Z" fill="url(#paint24_linear_1_5535)"/>
</g>
</g>
<defs>
<linearGradient id="paint0_linear_1_5535" x1="11900.8" y1="2532.48" x2="11900.8" y2="4494.61" gradientUnits="userSpaceOnUse">
<stop stop-color="#BFD0E9" stop-opacity="0.7"/>
<stop offset="1" stop-color="#859CD6" stop-opacity="0.2"/>
</linearGradient>
<linearGradient id="paint1_linear_1_5535" x1="1935.84" y1="1690.89" x2="3302.14" y2="-455.512" gradientUnits="userSpaceOnUse">
<stop stop-color="#FBFCFD"/>
<stop offset="1" stop-color="#F1F5FA"/>
</linearGradient>
<linearGradient id="paint2_linear_1_5535" x1="464.539" y1="120.874" x2="520.091" y2="179.525" gradientUnits="userSpaceOnUse">
<stop stop-color="#F0F4F7"/>
<stop offset="1" stop-color="#D2DDE8"/>
</linearGradient>
<linearGradient id="paint3_linear_1_5535" x1="334.261" y1="151.573" x2="396.41" y2="151.573" gradientUnits="userSpaceOnUse">
<stop stop-color="#F0F4F7"/>
<stop offset="1" stop-color="#D2DDE8"/>
</linearGradient>
<linearGradient id="paint4_linear_1_5535" x1="124.746" y1="44.982" x2="126.598" y2="43.1306" gradientUnits="userSpaceOnUse">
<stop stop-color="#E2E9EF"/>
<stop offset="1" stop-color="#E2E9F0"/>
</linearGradient>
<linearGradient id="paint5_linear_1_5535" x1="575.84" y1="151.573" x2="637.984" y2="151.573" gradientUnits="userSpaceOnUse">
<stop stop-color="#F0F4F7"/>
<stop offset="1" stop-color="#E7EDF3"/>
</linearGradient>
<linearGradient id="paint6_linear_1_5535" x1="2567.76" y1="1288.45" x2="2421.69" y2="231.212" gradientUnits="userSpaceOnUse">
<stop stop-color="#919FB9" stop-opacity="0.3"/>
<stop offset="0.191" stop-color="#95A3BC" stop-opacity="0.243"/>
<stop offset="0.392" stop-color="#A2AEC4" stop-opacity="0.182"/>
<stop offset="0.597" stop-color="#B7C0D1" stop-opacity="0.121"/>
<stop offset="0.803" stop-color="#D4DAE4" stop-opacity="0.059"/>
<stop offset="1" stop-color="#F7F9FB" stop-opacity="0"/>
</linearGradient>
<linearGradient id="paint7_linear_1_5535" x1="350.631" y1="256.55" x2="380.697" y2="329.183" gradientUnits="userSpaceOnUse">
<stop stop-color="#F0F4F7"/>
<stop offset="1" stop-color="#D2DDE8"/>
</linearGradient>
<linearGradient id="paint8_linear_1_5535" x1="124.927" y1="85.4439" x2="126.781" y2="83.6169" gradientUnits="userSpaceOnUse">
<stop stop-color="#E2E9EF"/>
<stop offset="1" stop-color="#E2E9F0"/>
</linearGradient>
<radialGradient id="paint9_radial_1_5535" cx="0" cy="0" r="1" gradientUnits="userSpaceOnUse" gradientTransform="translate(1756.18 432.696) scale(5611.19 36.8654)">
<stop stop-color="#919FB9" stop-opacity="0.6"/>
<stop offset="0.191" stop-color="#95A3BC" stop-opacity="0.485"/>
<stop offset="0.392" stop-color="#A2AEC4" stop-opacity="0.365"/>
<stop offset="0.597" stop-color="#B7C0D1" stop-opacity="0.242"/>
<stop offset="0.803" stop-color="#D4DAE4" stop-opacity="0.118"/>
<stop offset="1" stop-color="#F7F9FB" stop-opacity="0"/>
</radialGradient>
<linearGradient id="paint10_linear_1_5535" x1="3896.73" y1="2167.64" x2="5359.4" y2="2167.64" gradientUnits="userSpaceOnUse">
<stop stop-color="#FAFCFD"/>
<stop offset="1" stop-color="#F9FBFD"/>
</linearGradient>
<linearGradient id="paint11_linear_1_5535" x1="6972.62" y1="4379.57" x2="6972.62" y2="1361.11" gradientUnits="userSpaceOnUse">
<stop stop-color="#CFDAE5"/>
<stop offset="1" stop-color="#F0F4F7"/>
</linearGradient>
<linearGradient id="paint12_linear_1_5535" x1="6876.41" y1="4265.61" x2="6876.41" y2="1364.29" gradientUnits="userSpaceOnUse">
<stop stop-color="#F7F8FB"/>
<stop offset="1" stop-color="#E8EEF5"/>
</linearGradient>
<linearGradient id="paint13_linear_1_5535" x1="6876.68" y1="3677.37" x2="6876.68" y2="1531.17" gradientUnits="userSpaceOnUse">
<stop stop-color="#FBFCFD"/>
<stop offset="1" stop-color="#F1F5FA"/>
</linearGradient>
<linearGradient id="paint14_linear_1_5535" x1="9026.06" y1="3278.39" x2="5505.42" y2="-117.845" gradientUnits="userSpaceOnUse">
<stop stop-color="#E3EAF1"/>
<stop offset="1" stop-color="#D9E2ED"/>
</linearGradient>
<linearGradient id="paint15_linear_1_5535" x1="3027.5" y1="90.2009" x2="6049.24" y2="90.2009" gradientUnits="userSpaceOnUse">
<stop stop-color="white"/>
</linearGradient>
<linearGradient id="paint16_linear_1_5535" x1="379.32" y1="106.199" x2="386.726" y2="106.199" gradientUnits="userSpaceOnUse">
<stop stop-color="#D6E0E8"/>
<stop offset="1" stop-color="#DDE5ED"/>
</linearGradient>
<linearGradient id="paint17_linear_1_5535" x1="382.237" y1="106.199" x2="389.644" y2="106.199" gradientUnits="userSpaceOnUse">
<stop stop-color="#D6E0E8"/>
<stop offset="1" stop-color="#DDE5ED"/>
</linearGradient>
<linearGradient id="paint18_linear_1_5535" x1="385.04" y1="106.199" x2="392.446" y2="106.199" gradientUnits="userSpaceOnUse">
<stop stop-color="#D6E0E8"/>
<stop offset="1" stop-color="#DDE5ED"/>
</linearGradient>
<radialGradient id="paint19_radial_1_5535" cx="0" cy="0" r="1" gradientUnits="userSpaceOnUse" gradientTransform="translate(1102.32 641.092) scale(280.136 335.775)">
<stop stop-color="#3A68A2" stop-opacity="0.7"/>
<stop offset="0.042" stop-color="#3A68A0" stop-opacity="0.679"/>
<stop offset="0.579" stop-color="#3C6891" stop-opacity="0.41"/>
<stop offset="1" stop-color="#3C688B" stop-opacity="0.2"/>
</radialGradient>
<linearGradient id="paint20_linear_1_5535" x1="1786.83" y1="1748.95" x2="2280.32" y2="1315.65" gradientUnits="userSpaceOnUse">
<stop stop-color="#09BDF8"/>
<stop offset="1" stop-color="#1591D4"/>
</linearGradient>
<linearGradient id="paint21_linear_1_5535" x1="630.243" y1="340.709" x2="646.428" y2="324.509" gradientUnits="userSpaceOnUse">
<stop stop-color="#2651A1"/>
<stop offset="1" stop-color="#1E3C74"/>
</linearGradient>
<linearGradient id="paint22_linear_1_5535" x1="1244.1" y1="745.075" x2="1244.1" y2="392.846" gradientUnits="userSpaceOnUse">
<stop stop-color="#FFCB5D"/>
<stop offset="1" stop-color="#FFA961"/>
</linearGradient>
<linearGradient id="paint23_linear_1_5535" x1="689.106" y1="449.287" x2="771.823" y2="366.013" gradientUnits="userSpaceOnUse">
<stop stop-color="#C9D3E6"/>
<stop offset="0.998" stop-color="#EDF0F6"/>
</linearGradient>
<linearGradient id="paint24_linear_1_5535" x1="804.608" y1="2197.5" x2="836.735" y2="2197.5" gradientUnits="userSpaceOnUse">
<stop stop-color="#919FB9" stop-opacity="0.1"/>
<stop offset="0.191" stop-color="#95A3BC" stop-opacity="0.081"/>
<stop offset="0.392" stop-color="#A2AEC4" stop-opacity="0.061"/>
<stop offset="0.597" stop-color="#B7C0D1" stop-opacity="0.04"/>
<stop offset="0.803" stop-color="#D4DAE4" stop-opacity="0.02"/>
<stop offset="1" stop-color="#F7F9FB" stop-opacity="0"/>
</linearGradient>
<clipPath id="clip0_1_5535">
<rect width="100" height="67.31" fill="white" transform="translate(0.5 8)"/>
</clipPath>
<clipPath id="clip1_1_5535">
<rect width="100" height="67.31" fill="white" transform="translate(0.5 8)"/>
</clipPath>
</defs>
</svg>
