<svg width="101" height="75" viewBox="0 0 101 75" fill="none" xmlns="http://www.w3.org/2000/svg">
<g clip-path="url(#clip0_1_5650)">
<g clip-path="url(#clip1_1_5650)">
<g clip-path="url(#clip2_1_5650)">
<path d="M64.569 16.94H32.9C32.781 16.94 32.6845 17.0365 32.6845 17.1555V38.3383C32.6845 38.4573 32.781 38.5538 32.9 38.5538H64.569C64.688 38.5538 64.7845 38.4573 64.7845 38.3383V17.1555C64.7845 17.0365 64.688 16.94 64.569 16.94Z" fill="url(#paint0_linear_1_5650)" stroke="#E8EEF4" stroke-width="0.431035"/>
<path d="M30.6776 38.7728H66.4914V40.2831H30.6776V38.7728Z" fill="url(#paint1_linear_1_5650)"/>
<path d="M92.0784 26.8012L86.247 27.0161C86.128 27.0204 86.0352 27.1204 86.0396 27.2394L86.4728 38.9995C86.4772 39.1184 86.5772 39.2113 86.6961 39.2069L92.5275 38.9921C92.6465 38.9877 92.7393 38.8877 92.735 38.7688L92.3017 27.0086C92.2973 26.8897 92.1973 26.7968 92.0784 26.8012Z" fill="url(#paint2_linear_1_5650)" stroke="#E8EEF4" stroke-width="0.431035"/>
<path d="M95.8931 37.3486C95.8931 38.6323 95.5172 40.7323 95.8931 45.2909L93.069 45.5245C92.644 44.3891 91.3966 42.5331 91.0198 41.3159C90.6422 40.0986 89.7509 38.0486 89.6354 37.3486C89.5207 36.6486 90.7888 36.8814 90.7888 36.8814L92.856 38.8021C92.856 37.4021 92.7069 34.8038 92.7069 33.6685C92.7069 33.6685 95.8931 36.065 95.8931 37.3486Z" fill="url(#paint3_linear_1_5650)"/>
<path d="M47.7086 47.6745V51.2944H52.2483C51.8698 48.1711 51.3259 46.9194 52.9147 45.1073C54.5026 43.2952 53.6198 43.5237 55.0035 42.0875C56.6241 40.4047 56.2138 40.9237 57.2422 40.2754H54.475C53.025 40.928 52.3948 41.5513 51.8698 41.3133C51.3457 41.0745 50.8931 40.2754 50.8931 40.2754H43.8121C43.8121 40.2754 44.2603 41.0107 45.006 41.7849C45.7517 42.5599 46.006 43.5866 46.4974 44.3521C46.8828 44.9487 47.7086 45.7194 47.7086 47.6745Z" fill="url(#paint4_linear_1_5650)"/>
<path d="M83.4914 42.8366C82.6009 45.1788 82.3241 48.1788 82.0776 49.603L78.7828 49.2124C79.4888 45.3262 79.1457 45.6986 79.2052 44.7952C79.2655 43.8909 78.5905 42.7866 77.8957 41.9823C77.2009 41.1788 78.4897 42.1719 78.7836 41.5745L79.8526 37.2728C80.5164 36.453 82.2716 32.7452 83.0785 35.9771C83.8854 39.2099 84.3836 40.4943 83.4923 42.8366H83.4914Z" fill="url(#paint5_linear_1_5650)"/>
<path d="M75.8353 60.809L81.9362 62.1297L82.0103 55.6279C82.1948 52.9159 82.7224 50.6822 82.7233 50.2279C82.7241 49.3572 77.5103 48.1736 77.644 49.2797C77.7784 50.3831 77.5948 51.0728 77.2957 54.5521C76.9241 58.8831 75.8353 60.809 75.8353 60.809Z" fill="url(#paint6_linear_1_5650)"/>
<path d="M93.7509 63.1125C93.9655 68.7021 99.5707 66.5849 99.1233 61.3004C98.675 56.0159 96.6448 47.4918 96.6448 45.0762C96.6448 42.6599 92.7991 44.3926 91.9603 45.0762C91.5284 45.428 92.4922 46.8969 93.3009 51.9935C94.0603 56.7849 93.5362 57.5228 93.7509 63.1125Z" fill="url(#paint7_linear_1_5650)"/>
<path d="M53.719 63.2417H46.7155C46.7155 63.2417 47.325 52.7374 47.325 51.2271C47.325 49.7176 53.7181 50.1702 53.1095 51.2271C52.5 52.2848 53.719 63.2417 53.719 63.2417Z" fill="url(#paint8_linear_1_5650)"/>
<path fill-rule="evenodd" clip-rule="evenodd" d="M45.7905 28.5659C45.8327 28.4797 45.8327 28.3504 45.8741 28.2642C45.9164 28.0504 45.9164 27.8357 45.9164 27.621C45.9164 27.1909 45.8741 26.7616 45.7483 26.3754C45.6638 26.246 45.6224 26.1176 45.5802 25.9892C45.4948 25.7654 45.3659 25.5609 45.2009 25.3874C45.0328 25.1728 44.8224 24.5719 44.444 24.7435C44.3181 24.7866 44.2345 24.959 44.15 25.0443L43.8974 25.4305C43.856 25.4736 43.8138 25.5598 43.856 25.6029C43.856 25.646 43.8974 25.646 43.9396 25.646C44.0241 25.6883 44.0664 25.6883 44.15 25.7314C44.1922 25.7314 44.2345 25.7745 44.1922 25.8176C44.1922 25.8176 44.1922 25.8607 44.15 25.8607C43.9396 26.0745 43.7293 26.246 43.519 26.4616C43.4747 26.5092 43.4456 26.5689 43.4353 26.6331C43.4353 26.6762 43.4776 26.6762 43.4776 26.7193C43.4776 26.7624 43.4353 26.7624 43.3931 26.8055C43.3174 26.8385 43.2467 26.8817 43.1828 26.934C43.1405 27.0202 43.1828 27.1486 43.1405 27.234C43.0983 27.4495 42.9724 27.6202 42.8879 27.8357C42.8043 27.965 42.7621 28.0926 42.6784 28.2219C42.6784 28.3943 42.6362 28.5228 42.7198 28.6512C42.9302 28.9521 43.3095 28.7805 43.6034 28.909C43.6871 28.9521 43.7715 28.9521 43.8138 29.0383C43.9396 29.1667 43.9396 29.3814 43.9819 29.5098C44.0241 29.6823 44.0664 29.8538 44.15 30.0254C44.1922 30.24 44.2767 30.4547 44.3181 30.6271C44.6965 30.3254 45.0336 29.9831 45.2853 29.5529C45.5379 29.2521 45.6638 28.909 45.7905 28.5659ZM42.2577 25.5598C42.3 25.5598 42.3422 25.5167 42.4259 25.4736C42.5517 25.3874 42.6784 25.2581 42.8043 25.1728C42.9302 25.0866 43.0569 24.9581 43.1405 24.8728C43.2664 24.7866 43.3509 24.6142 43.3931 24.4857C43.4353 24.3995 43.5612 24.2279 43.519 24.0995C43.4776 24.0133 43.2664 23.9702 43.1828 23.9271C42.8465 23.8409 42.5517 23.7986 42.2155 23.7986C42.0896 23.7986 41.9207 23.8417 41.8793 23.971C41.8371 24.1857 42.0052 24.1426 42.1733 24.1857C42.1733 24.1857 42.2164 24.5288 42.2164 24.5719C42.2577 24.7874 42.1319 24.915 42.1319 25.1297C42.1319 25.259 42.1319 25.4745 42.2155 25.5598H42.2577ZM42.1733 29.5098C42.1733 29.4236 42.1319 29.3814 42.0474 29.3383C41.7948 29.2521 41.5431 29.2521 41.3319 29.0383C41.2905 28.9521 41.2905 28.8659 41.2483 28.7797C41.1646 28.6935 40.9543 28.6512 40.8276 28.6081H39.9862C39.8603 28.565 39.7767 28.3943 39.6931 28.2642C39.6931 28.2219 39.6931 28.1357 39.6086 28.1357C39.5241 28.0926 39.4396 28.1788 39.356 28.1357C39.3138 28.0926 39.3138 28.0495 39.3138 28.0064C39.3138 27.8779 39.3983 27.7495 39.4819 27.6642C39.6086 27.5779 39.7345 27.7073 39.8612 27.7073C39.9026 27.7073 39.9026 27.7073 39.9448 27.7504C40.0707 27.7935 40.1129 27.9642 40.1129 28.0926V28.1788C40.1129 28.2219 40.1543 28.2219 40.1974 28.2219C40.2388 28.0064 40.2388 27.7926 40.281 27.5779C40.281 27.3193 40.5336 27.0624 40.744 26.9762C40.8276 26.9331 40.8698 27.0193 40.9543 26.9762C41.206 26.89 41.8371 26.6331 41.7112 26.2892C41.6267 25.9892 41.375 25.6883 41.0379 25.7314C40.9543 25.7745 40.9121 25.8176 40.8276 25.8607C40.7017 25.946 40.4491 26.2038 40.3233 26.2038C40.1129 26.1607 40.1129 25.8598 40.1543 25.7314C40.1974 25.559 40.5759 25.0012 40.8276 25.0874L40.9957 25.259C41.0802 25.3021 41.206 25.3021 41.3319 25.3021C41.375 25.3021 41.4164 25.3021 41.4586 25.259C41.5009 25.2159 41.5009 25.2159 41.5009 25.1728C41.5009 25.0435 41.3741 24.915 41.2905 24.8297C41.206 24.7435 41.0802 24.6573 40.9543 24.6142C40.5336 24.4857 39.8603 24.6573 39.5233 24.959C39.1871 25.259 38.9353 25.7745 38.7672 26.2038C38.6724 26.4981 38.6021 26.7997 38.5569 27.1055C38.5146 27.3202 38.4724 27.4917 38.5991 27.7064C38.725 27.965 38.9776 28.2219 39.2302 28.3943C39.3983 28.5228 39.7345 28.5228 39.9026 28.7374C40.0284 28.909 39.9862 29.1236 39.9862 29.3383C39.9862 29.596 40.1543 29.8107 40.2388 30.0254C40.2819 30.1547 40.3233 30.3262 40.3655 30.4547C40.3655 30.4978 40.4069 30.7564 40.4069 30.7986C40.6595 30.9279 40.8698 31.0564 41.1646 31.1426C41.206 31.1426 41.3741 30.884 41.3741 30.8409C41.5009 30.7124 41.5845 30.5409 41.7103 30.4547C41.7948 30.4116 41.8793 30.3693 41.9629 30.2823C42.0474 30.1969 42.0896 30.0254 42.1319 29.8969C42.1733 29.8107 42.2155 29.6392 42.1733 29.5098ZM46.2948 27.5357C46.2948 29.8538 44.4448 31.7004 42.2155 31.7004C39.9871 31.7004 38.1362 29.8538 38.1362 27.5348C38.1362 25.2159 39.9448 23.3693 42.2155 23.3693C44.4862 23.3693 46.2948 25.2167 46.2948 27.5357Z" fill="url(#paint9_linear_1_5650)"/>
<path d="M58.4095 23.5969L54.0405 24.1918L54.006 27.4374L58.3681 27.484L58.4095 23.5969Z" fill="url(#paint10_linear_1_5650)"/>
<path d="M53.6431 24.2521L50.3457 24.6719L50.3164 27.4254L53.6095 27.4607L53.6431 24.2521Z" fill="url(#paint11_linear_1_5650)"/>
<path d="M50.3129 27.7642L53.606 27.7986L53.5716 31.0176L50.2836 30.5176L50.3129 27.7642Z" fill="url(#paint12_linear_1_5650)"/>
<path d="M58.3647 27.8935L54.0017 27.8461L53.9672 31.0737L58.3241 31.7435L58.3647 27.8935Z" fill="url(#paint13_linear_1_5650)"/>
<path d="M27.4377 20.4655L7.49511 22.346C7.37661 22.3572 7.28961 22.4623 7.30078 22.5808L8.59086 36.2615C8.60203 36.38 8.70715 36.467 8.82565 36.4559L28.7682 34.5753C28.8867 34.5641 28.9737 34.459 28.9625 34.3405L27.6725 20.6598C27.6613 20.5413 27.5562 20.4543 27.4377 20.4655Z" fill="url(#paint14_linear_1_5650)" stroke="#E8EEF4" stroke-width="0.431035"/>
<path d="M81.4991 41.6782L82.5515 21.4297C82.5576 21.3108 82.4663 21.2095 82.3474 21.2033L68.0073 20.458C67.8884 20.4519 67.7871 20.5432 67.7809 20.6621L66.7286 40.9106C66.7224 41.0295 66.8137 41.1308 66.9326 41.137L81.2727 41.8823C81.3916 41.8885 81.493 41.7971 81.4991 41.6782Z" fill="url(#paint15_linear_1_5650)" stroke="#E8EEF4" stroke-width="0.431035"/>
<path d="M20.2741 26.1426L21.0647 24.3469C21.0862 24.2993 21.0888 24.2453 21.0718 24.1959C21.0548 24.1466 21.0196 24.1056 20.9733 24.0814C20.9504 24.0705 20.9256 24.0644 20.9003 24.0635C20.875 24.0626 20.8497 24.0668 20.8262 24.076C20.8026 24.0853 20.7811 24.0992 20.7631 24.117C20.7451 24.1348 20.731 24.1562 20.7216 24.1797L19.9198 25.9986C19.1352 25.7144 18.2963 25.6121 17.4664 25.6995C16.6302 25.7803 15.8228 26.0474 15.1035 26.4814L14.0121 24.8521C13.9985 24.8308 13.9807 24.8125 13.9597 24.7984C13.9387 24.7843 13.915 24.7748 13.8901 24.7703C13.8653 24.7659 13.8397 24.7666 13.8152 24.7725C13.7906 24.7784 13.7675 24.7894 13.7474 24.8047C13.7057 24.8367 13.6778 24.8834 13.6693 24.9353C13.6609 24.9871 13.6724 25.0403 13.7017 25.084L14.7793 26.6926C13.2448 27.7728 12.2991 29.5969 12.2879 31.6236L23.5474 30.4952C23.1983 28.5055 21.9629 26.9003 20.2741 26.1426ZM15.1922 29.6547C15.1289 29.6596 15.0652 29.6518 15.0048 29.6318C14.9445 29.6118 14.8888 29.5799 14.841 29.5381C14.7931 29.4962 14.7541 29.4453 14.7262 29.3882C14.6983 29.3311 14.682 29.269 14.6785 29.2055C14.656 28.9297 14.8491 28.6874 15.1095 28.6615C15.1727 28.6567 15.2363 28.6646 15.2964 28.6846C15.3566 28.7046 15.4122 28.7364 15.4599 28.7782C15.5077 28.8199 15.5466 28.8707 15.5745 28.9276C15.6024 28.9846 15.6187 29.0465 15.6224 29.1098C15.6363 29.2389 15.5991 29.3682 15.5186 29.4701C15.4382 29.572 15.321 29.6382 15.1922 29.6547ZM20.3612 29.1374C20.2978 29.1423 20.234 29.1345 20.1736 29.1145C20.1132 29.0944 20.0575 29.0624 20.0096 29.0205C19.9618 28.9786 19.9228 28.9275 19.8949 28.8703C19.867 28.8131 19.8509 28.7509 19.8474 28.6874C19.825 28.4133 20.0181 28.1702 20.2785 28.1443C20.3417 28.1394 20.4053 28.1471 20.4655 28.1671C20.5257 28.1871 20.5814 28.2189 20.6291 28.2606C20.6769 28.3024 20.7159 28.3533 20.7437 28.4103C20.7716 28.4673 20.7878 28.5292 20.7914 28.5926C20.805 28.7215 20.7677 28.8506 20.6873 28.9523C20.6068 29.054 20.4898 29.121 20.3612 29.1374Z" fill="url(#paint16_linear_1_5650)"/>
<path d="M78.0026 33.0883C77.8417 33.3937 77.6502 33.682 77.431 33.9486C77.1388 34.3029 76.9034 34.5452 76.7267 34.6762C76.4517 34.8917 76.1681 34.99 75.8741 34.9719C75.6647 34.9547 75.4164 34.8719 75.131 34.7236C74.8829 34.5878 74.6105 34.502 74.3293 34.4711C74.0394 34.4521 73.7487 34.4899 73.4733 34.5823C73.1638 34.6797 72.9164 34.7228 72.7319 34.7133C72.45 34.7012 72.1802 34.5529 71.9224 34.2659C71.7578 34.0935 71.5569 33.8038 71.3216 33.3986C71.0566 32.9352 70.8587 32.4366 70.7336 31.9176C70.588 31.3567 70.5356 30.7757 70.5784 30.1978C70.6302 29.5728 70.8086 29.0435 71.1138 28.6142C71.3552 28.2693 71.6586 28.0064 72.0259 27.8254C72.394 27.6443 72.7819 27.5693 73.1897 27.5978C73.4138 27.6167 73.7009 27.7116 74.0517 27.8797C74.4034 28.0486 74.6302 28.1383 74.7328 28.1469C74.8086 28.1538 75.0733 28.0935 75.5259 27.9685C75.9534 27.8529 76.3078 27.8202 76.5922 27.8693C77.3647 27.9986 77.9216 28.359 78.2638 28.9504C77.5336 29.3167 77.1405 29.884 77.0828 30.6495C77.0397 31.2461 77.2121 31.7607 77.5991 32.19C77.7741 32.3883 77.9741 32.5486 78.2026 32.6685C78.1379 32.815 78.0716 32.9547 78.0026 33.0883ZM76.8129 25.8435C76.7741 26.3107 76.569 26.7323 76.2 27.1073C75.7534 27.5521 75.2397 27.7883 74.7112 27.6986C74.7096 27.6394 74.7113 27.5801 74.7164 27.5211C74.7534 27.0728 74.9862 26.609 75.3629 26.2452C75.55 26.0616 75.781 25.915 76.056 25.8055C76.2978 25.7042 76.5577 25.6532 76.8198 25.6555C76.821 25.7182 76.8181 25.781 76.8129 25.8435Z" fill="url(#paint17_linear_1_5650)"/>
<path d="M4.6612 35.9142C4.95948 39.2366 5.8543 40.2935 5.70517 43.7659H9.58448C9.66379 42.0538 10.0328 41.0478 11.2267 38.6323C12.4207 36.2168 12.8534 34.8978 12.569 34.2521C12.8672 33.9504 11.2259 33.7995 10.9276 34.2521C10.6293 34.7056 9.58448 36.5176 8.83792 36.6685C8.09224 36.8193 7.79396 29.2702 7.79396 29.2702C6.30172 28.9685 6.33448 29.8737 6.00258 31.384C5.67155 32.8935 4.3612 32.5909 4.65948 35.9133L4.6612 35.9142Z" fill="#7A6149"/>
<path d="M8.54483 62.9806L3.46552 61.1237C3.46552 61.1237 5.2612 45.1176 5.25603 44.0624C5.25172 43.0073 10.7474 42.9538 10.0319 44.5159C9.31638 46.0771 8.54483 62.9814 8.54483 62.9814V62.9806Z" fill="url(#paint18_linear_1_5650)"/>
<path d="M31.3271 30.2183L25.5049 29.8155C25.3861 29.8073 25.2832 29.8969 25.275 30.0156L24.4627 41.7548C24.4545 41.8735 24.5441 41.9764 24.6629 41.9847L30.4852 42.3875C30.6039 42.3957 30.7068 42.3061 30.715 42.1874L31.5273 30.4482C31.5355 30.3295 31.4459 30.2265 31.3271 30.2183Z" fill="url(#paint19_linear_1_5650)" stroke="#E8EEF4" stroke-width="0.431035"/>
<path d="M27.869 34.6504L28.0069 35.7366C28.025 35.8801 28.0807 36.0163 28.1686 36.1312C28.2564 36.2462 28.3732 36.3358 28.5069 36.3909L29.5104 36.7978L28.4397 36.9375C28.2968 36.9566 28.1616 37.0137 28.0484 37.1028C27.9351 37.192 27.8478 37.31 27.7957 37.4444L27.3957 38.4616L27.2578 37.3754C27.2401 37.2316 27.1845 37.0951 27.0966 36.98C27.0088 36.8648 26.8918 36.7752 26.7578 36.7202L25.7552 36.3142L26.825 36.1745C26.9679 36.1554 27.103 36.0983 27.2163 36.0091C27.3296 35.92 27.4169 35.802 27.469 35.6676L27.869 34.6504Z" fill="url(#paint20_linear_1_5650)"/>
<path d="M89.0422 30.8616L89.5147 31.8495C89.6422 32.1167 89.9026 32.2952 90.194 32.315L91.2741 32.3866L90.3009 32.8547C90.1712 32.9176 90.0609 33.0141 89.9813 33.1342C89.9016 33.2543 89.8557 33.3935 89.8483 33.5374L89.7879 34.6288L89.3155 33.6409C89.2538 33.51 89.1583 33.3979 89.0389 33.3161C88.9196 33.2343 88.7806 33.1857 88.6362 33.1754L87.556 33.1038L88.5293 32.6357C88.6589 32.5728 88.7693 32.4763 88.8489 32.3562C88.9285 32.2361 88.9744 32.0968 88.9819 31.953L89.0422 30.8616Z" fill="url(#paint21_linear_1_5650)"/>
<path d="M20.3552 39.0848C20.6534 40.1417 21.2069 45.2003 21.3586 46.6383L25.0121 46.3305C25.3164 44.79 25.569 45.0124 26.0259 43.0098C26.4828 41.0081 24.6379 40.0021 24.3845 39.3865C24.3845 39.3865 25.1302 36.065 25.1302 35.159C25.1302 34.2529 24.981 33.9503 24.8319 33.0452C21.1017 37.4236 20.0569 38.0279 20.3552 39.0848Z" fill="url(#paint22_linear_1_5650)"/>
<path d="M25.5259 62.6366H19.6104C19.6104 62.6366 20.8905 47.0538 20.6379 45.0538C20.3871 43.0547 26.806 43.0909 25.9104 45.0538C25.0155 47.0167 25.525 62.6366 25.525 62.6366H25.5259Z" fill="url(#paint23_linear_1_5650)"/>
</g>
</g>
</g>
<defs>
<linearGradient id="paint0_linear_1_5650" x1="42.4448" y1="16.7245" x2="56.2819" y2="37.2271" gradientUnits="userSpaceOnUse">
<stop stop-color="#F4F9FE"/>
<stop offset="1" stop-color="#E9EEF4"/>
</linearGradient>
<linearGradient id="paint1_linear_1_5650" x1="41.0629" y1="38.8848" x2="41.0845" y2="40.5047" gradientUnits="userSpaceOnUse">
<stop stop-color="#F0F4F7"/>
<stop offset="1" stop-color="#D2DDE8"/>
</linearGradient>
<linearGradient id="paint2_linear_1_5650" x1="87.0718" y1="40.7881" x2="97.0993" y2="35.5179" gradientUnits="userSpaceOnUse">
<stop stop-color="#F0F5FA"/>
<stop offset="1" stop-color="#F1F5FA"/>
</linearGradient>
<linearGradient id="paint3_linear_1_5650" x1="91.8267" y1="37.115" x2="98.2103" y2="41.015" gradientUnits="userSpaceOnUse">
<stop stop-color="#E0C3A8"/>
<stop offset="1" stop-color="#F0BCAC"/>
</linearGradient>
<linearGradient id="paint4_linear_1_5650" x1="51.4224" y1="57.79" x2="45.6276" y2="37.8961" gradientUnits="userSpaceOnUse">
<stop stop-color="#FFE4DB"/>
<stop offset="1" stop-color="#D8B2A6"/>
</linearGradient>
<linearGradient id="paint5_linear_1_5650" x1="81.2" y1="34.834" x2="80.194" y2="49.6978" gradientUnits="userSpaceOnUse">
<stop stop-color="#897B6E"/>
<stop offset="1" stop-color="#B7A18E"/>
</linearGradient>
<linearGradient id="paint6_linear_1_5650" x1="79.9465" y1="50.6452" x2="78.5733" y2="58.44" gradientUnits="userSpaceOnUse">
<stop stop-color="#DE9403"/>
<stop offset="1" stop-color="#DAB700" stop-opacity="0"/>
</linearGradient>
<linearGradient id="paint7_linear_1_5650" x1="93.8095" y1="46.809" x2="96.5776" y2="60.178" gradientUnits="userSpaceOnUse">
<stop stop-color="#1F7030"/>
<stop offset="0.806" stop-color="#439E57" stop-opacity="0"/>
</linearGradient>
<linearGradient id="paint8_linear_1_5650" x1="49.931" y1="51.559" x2="50.0629" y2="57.934" gradientUnits="userSpaceOnUse">
<stop stop-color="#495767"/>
<stop offset="1" stop-color="#5E6A79" stop-opacity="0"/>
</linearGradient>
<linearGradient id="paint9_linear_1_5650" x1="42.3595" y1="24.1564" x2="42.7974" y2="31.9029" gradientUnits="userSpaceOnUse">
<stop stop-color="#DBE5EC"/>
<stop offset="1" stop-color="#D2DDE8"/>
</linearGradient>
<linearGradient id="paint10_linear_1_5650" x1="51.7802" y1="25.2056" x2="56.1698" y2="30.8211" gradientUnits="userSpaceOnUse">
<stop stop-color="#D9E1E8"/>
<stop offset="1" stop-color="#CDD7E1"/>
</linearGradient>
<linearGradient id="paint11_linear_1_5650" x1="51.7802" y1="25.2055" x2="56.1698" y2="30.821" gradientUnits="userSpaceOnUse">
<stop stop-color="#D9E1E8"/>
<stop offset="1" stop-color="#CDD7E1"/>
</linearGradient>
<linearGradient id="paint12_linear_1_5650" x1="51.7802" y1="25.2055" x2="56.1698" y2="30.8211" gradientUnits="userSpaceOnUse">
<stop stop-color="#D9E1E8"/>
<stop offset="1" stop-color="#CDD7E1"/>
</linearGradient>
<linearGradient id="paint13_linear_1_5650" x1="51.7802" y1="25.2056" x2="56.1698" y2="30.8211" gradientUnits="userSpaceOnUse">
<stop stop-color="#D9E1E8"/>
<stop offset="1" stop-color="#CDD7E1"/>
</linearGradient>
<linearGradient id="paint14_linear_1_5650" x1="10.8962" y1="38.092" x2="23.7122" y2="17.8347" gradientUnits="userSpaceOnUse">
<stop stop-color="#F0F5FA"/>
<stop offset="1" stop-color="#F1F5FA"/>
</linearGradient>
<linearGradient id="paint15_linear_1_5650" x1="75.6635" y1="40.9675" x2="79.0937" y2="23.8656" gradientUnits="userSpaceOnUse">
<stop stop-color="#E8EEF4"/>
<stop offset="1" stop-color="#F9FBFF"/>
</linearGradient>
<linearGradient id="paint16_linear_1_5650" x1="17.6103" y1="25.0236" x2="18.4302" y2="31.1805" gradientUnits="userSpaceOnUse">
<stop stop-color="#DBE5EC"/>
<stop offset="1" stop-color="#D2DDE8"/>
</linearGradient>
<linearGradient id="paint17_linear_1_5650" x1="74.5422" y1="26.54" x2="75.1397" y2="35.1909" gradientUnits="userSpaceOnUse">
<stop stop-color="#DBE5EC"/>
<stop offset="1" stop-color="#D2DDE8"/>
</linearGradient>
<linearGradient id="paint18_linear_1_5650" x1="6.30086" y1="46.6288" x2="6.76724" y2="55.5461" gradientUnits="userSpaceOnUse">
<stop stop-color="#B13737"/>
<stop offset="1" stop-color="#F39A9A" stop-opacity="0"/>
</linearGradient>
<linearGradient id="paint19_linear_1_5650" x1="24.8932" y1="43.5768" x2="35.4224" y2="39.3953" gradientUnits="userSpaceOnUse">
<stop stop-color="#F0F5FA"/>
<stop offset="1" stop-color="#F1F5FA"/>
</linearGradient>
<linearGradient id="paint20_linear_1_5650" x1="25.7604" y1="36.3038" x2="29.5121" y2="36.7694" gradientUnits="userSpaceOnUse">
<stop stop-color="#E3E9EE"/>
<stop offset="1" stop-color="#D2DDE8"/>
</linearGradient>
<linearGradient id="paint21_linear_1_5650" x1="87.5578" y1="33.0926" x2="91.2672" y2="32.359" gradientUnits="userSpaceOnUse">
<stop stop-color="#E3E9EE"/>
<stop offset="1" stop-color="#D2DDE8"/>
</linearGradient>
<linearGradient id="paint22_linear_1_5650" x1="23.225" y1="33.0452" x2="23.225" y2="46.6383" gradientUnits="userSpaceOnUse">
<stop stop-color="#D9CABC"/>
<stop offset="1" stop-color="#C99C73"/>
</linearGradient>
<linearGradient id="paint23_linear_1_5650" x1="23.3405" y1="46.4805" x2="22.944" y2="55.4624" gradientUnits="userSpaceOnUse">
<stop stop-color="#5E9ED9"/>
<stop offset="1" stop-color="#0071DA" stop-opacity="0"/>
</linearGradient>
<clipPath id="clip0_1_5650">
<rect width="100" height="66.16" fill="white" transform="translate(0.5 8.31)"/>
</clipPath>
<clipPath id="clip1_1_5650">
<rect width="100" height="66.16" fill="white" transform="translate(0.5 8.31)"/>
</clipPath>
<clipPath id="clip2_1_5650">
<rect width="100" height="50.8621" fill="white" transform="translate(0.5 15.959)"/>
</clipPath>
</defs>
</svg>
