<svg width="21" height="21" viewBox="0 0 21 21" fill="none" xmlns="http://www.w3.org/2000/svg">
<path d="M2.75 9.66667L17.75 5.5V15.5L2.75 12.1667V9.66667Z" stroke="black" stroke-width="1.5" stroke-linecap="round" stroke-linejoin="round"/>
<path d="M9.91579 14.5003C9.82824 14.8177 9.67904 15.1147 9.47671 15.3744C9.27438 15.6341 9.02287 15.8514 8.73656 16.0139C8.45025 16.1764 8.13473 16.2809 7.80802 16.3215C7.48131 16.3621 7.14982 16.3379 6.83246 16.2503C6.51509 16.1628 6.21808 16.0136 5.95838 15.8112C5.69868 15.6089 5.48138 15.3574 5.31888 15.0711C5.15637 14.7848 5.05186 14.4693 5.01129 14.1426C4.97073 13.8159 4.99491 13.4844 5.08246 13.167" stroke="black" stroke-width="1.5" stroke-linecap="round" stroke-linejoin="round"/>
</svg>
