<svg width="21" height="21" viewBox="0 0 21 21" fill="none" xmlns="http://www.w3.org/2000/svg">
<path d="M17.895 6.17697C18.3356 5.73649 18.5832 5.13903 18.5833 4.51602C18.5833 3.89301 18.3359 3.29548 17.8954 2.85489C17.455 2.4143 16.8575 2.16673 16.2345 2.16666C15.6115 2.16658 15.014 2.41399 14.5734 2.85447L3.45169 13.9786C3.25821 14.1716 3.11512 14.4091 3.03503 14.6703L1.93419 18.297C1.91266 18.369 1.91103 18.4456 1.92949 18.5185C1.94794 18.5914 1.98579 18.658 2.03902 18.7111C2.09225 18.7643 2.15888 18.802 2.23183 18.8204C2.30477 18.8387 2.38133 18.837 2.45336 18.8153L6.08086 17.7153C6.34183 17.6359 6.57934 17.4937 6.77253 17.3011L17.895 6.17697Z" stroke="black" stroke-width="1.5" stroke-linecap="round" stroke-linejoin="round"/>
</svg>
